<svg width="292" height="101" viewBox="0 0 292 101" fill="none" xmlns="http://www.w3.org/2000/svg">
<path fill-rule="evenodd" clip-rule="evenodd" d="M212.913 55.0003H291.367C289.351 49.6709 284.2 45.8816 278.164 45.8816C276.532 45.8816 274.965 46.1587 273.507 46.6683C272.154 38.9085 265.386 33.0092 257.239 33.0092C256.403 33.0092 255.581 33.0713 254.779 33.1912C250.604 26.4729 243.156 22 234.665 22C221.595 22 211 32.595 211 45.6646C211 48.9799 211.682 52.136 212.913 55.0003Z" fill="white"/>
<path fill-rule="evenodd" clip-rule="evenodd" d="M82 29.975H0.38121C0.131546 28.8314 0 27.6437 0 26.4253C0 17.2766 7.41646 9.86019 16.5651 9.86019C19.5186 9.86019 22.2916 10.6332 24.6928 11.9878C28.2013 4.88514 35.5184 0 43.9764 0C55.8479 0 65.4717 9.62374 65.4717 21.4952C65.4717 21.8412 65.4635 22.1853 65.4473 22.5272C66.8641 21.9878 68.4012 21.6924 70.0073 21.6924C75.4897 21.6924 80.1683 25.1342 82 29.975Z" fill="white"/>
<path fill-rule="evenodd" clip-rule="evenodd" d="M196.741 98.1651C193.691 98.1651 190.895 97.08 188.717 95.2748C187.956 97.9268 185.772 99.9772 183.044 100.546H179.963C176.558 99.8358 174 96.8173 174 93.2013C174 89.0574 177.359 85.698 181.503 85.698C182.444 85.698 183.343 85.8709 184.173 86.1867C184.163 85.9865 184.159 85.7851 184.159 85.5826C184.159 78.6334 189.792 73 196.741 73C201.692 73 205.975 75.8596 208.029 80.0173C209.435 79.2244 211.058 78.7719 212.787 78.7719C218.142 78.7719 222.483 83.1133 222.483 88.4686C222.483 93.8239 218.142 98.1652 212.787 98.1652C209.818 98.1652 207.16 96.8309 205.382 94.7292C203.128 96.8592 200.087 98.1651 196.741 98.1651Z" fill="white"/>
</svg>
