<svg width="25" height="24" viewBox="0 0 25 24" fill="none" xmlns="http://www.w3.org/2000/svg">
<rect width="24" height="24" transform="translate(0.333008)" fill=""/>
<path d="M21.6138 18.424C21.266 19.2275 20.8543 19.9672 20.3772 20.6472C19.727 21.5743 19.1946 22.216 18.7843 22.5724C18.1483 23.1573 17.4668 23.4568 16.7371 23.4739C16.2132 23.4739 15.5815 23.3248 14.8461 23.0224C14.1082 22.7214 13.4302 22.5724 12.8102 22.5724C12.16 22.5724 11.4626 22.7214 10.7167 23.0224C9.96963 23.3248 9.36782 23.4824 8.90769 23.498C8.20791 23.5278 7.51041 23.2197 6.81418 22.5724C6.36982 22.1848 5.814 21.5204 5.14815 20.5791C4.43376 19.5739 3.84642 18.4084 3.3863 17.0795C2.89351 15.6442 2.64648 14.2543 2.64648 12.9087C2.64648 11.3673 2.97955 10.0379 3.64667 8.92385C4.17097 8.029 4.86847 7.32312 5.74145 6.80493C6.61443 6.28674 7.55769 6.02267 8.57349 6.00578C9.12931 6.00578 9.85819 6.1777 10.764 6.51559C11.6672 6.85462 12.2471 7.02655 12.5014 7.02655C12.6915 7.02655 13.3358 6.82552 14.4279 6.42473C15.4608 6.05305 16.3325 5.89916 17.0466 5.95978C18.9817 6.11595 20.4354 6.87876 21.4023 8.25303C19.6716 9.30163 18.8156 10.7703 18.8326 12.6544C18.8482 14.122 19.3806 15.3432 20.4269 16.3129C20.9011 16.7629 21.4307 17.1107 22.0198 17.3578C21.8921 17.7283 21.7572 18.0832 21.6138 18.424ZM17.1758 0.960131C17.1758 2.11039 16.7556 3.18439 15.9179 4.17847C14.9071 5.36023 13.6844 6.04311 12.3586 5.93536C12.3417 5.79736 12.3319 5.65213 12.3319 5.49951C12.3319 4.39526 12.8126 3.21349 13.6663 2.24724C14.0925 1.75801 14.6345 1.35122 15.2918 1.02671C15.9477 0.707053 16.5682 0.530273 17.1517 0.5C17.1687 0.653772 17.1758 0.807554 17.1758 0.960116V0.960131Z" fill="white"/>
</svg>
