<svg width="25" height="24" viewBox="0 0 25 24" fill="none" xmlns="http://www.w3.org/2000/svg">
<rect width="24" height="24" transform="translate(0.666504)" fill=""/>
<path fill-rule="evenodd" clip-rule="evenodd" d="M23.7065 12.2615C23.7065 11.446 23.6333 10.6619 23.4974 9.90918H12.6665V14.3576H18.8556C18.589 15.7951 17.7788 17.013 16.5608 17.8285V20.714H20.2774C22.452 18.7119 23.7065 15.7637 23.7065 12.2615Z" fill="#4285F4"/>
<path fill-rule="evenodd" clip-rule="evenodd" d="M12.6665 23.5001C15.7715 23.5001 18.3746 22.4703 20.2774 20.7139L16.5608 17.8285C15.531 18.5185 14.2137 18.9262 12.6665 18.9262C9.67124 18.9262 7.13601 16.9032 6.23169 14.1851H2.38965V17.1646C4.28192 20.923 8.17101 23.5001 12.6665 23.5001Z" fill="#34A853"/>
<path fill-rule="evenodd" clip-rule="evenodd" d="M6.23173 14.185C6.00173 13.495 5.87105 12.7579 5.87105 12C5.87105 11.242 6.00173 10.505 6.23173 9.81499V6.83545H2.38969C1.61082 8.38795 1.1665 10.1443 1.1665 12C1.1665 13.8557 1.61082 15.612 2.38969 17.1645L6.23173 14.185Z" fill="#FBBC05"/>
<path fill-rule="evenodd" clip-rule="evenodd" d="M12.6665 5.07386C14.3549 5.07386 15.8708 5.65409 17.0626 6.79364L20.361 3.49523C18.3694 1.63955 15.7662 0.5 12.6665 0.5C8.17101 0.5 4.28192 3.07705 2.38965 6.83545L6.23169 9.815C7.13601 7.09682 9.67124 5.07386 12.6665 5.07386Z" fill="#EA4335"/>
</svg>
