<svg width="12" height="12" viewBox="0 0 12 12" fill="none" xmlns="http://www.w3.org/2000/svg">
<path d="M0.5 2.6L0.187652 2.20957C0.0690449 2.30445 0 2.44811 0 2.6H0.5ZM6 10.5L5.68765 10.8904L6 11.1403L6.31235 10.8904L6 10.5ZM0.5 10.5H0C0 10.6922 0.110173 10.8674 0.283406 10.9507C0.456638 11.0339 0.662262 11.0105 0.812347 10.8904L0.5 10.5ZM11.5 2.6H12C12 2.44811 11.931 2.30445 11.8123 2.20957L11.5 2.6ZM11.5 10.5L11.1877 10.8904C11.3377 11.0105 11.5434 11.0339 11.7166 10.9507C11.8898 10.8674 12 10.6922 12 10.5H11.5ZM5.5 2.6V10.5H6.5V2.6H5.5ZM1 10.5V2.6H0V10.5H1ZM0.5 2.6C0.812348 2.99043 0.81226 2.9905 0.812177 2.99057C0.812156 2.99059 0.812079 2.99065 0.812037 2.99068C0.811954 2.99075 0.811892 2.9908 0.81185 2.99083C0.811766 2.9909 0.811764 2.9909 0.811843 2.99084C0.812 2.99071 0.812482 2.99033 0.813283 2.9897C0.814884 2.98844 0.817758 2.98619 0.821864 2.98301C0.830079 2.97665 0.843206 2.9666 0.860912 2.95337C0.896354 2.92691 0.949964 2.88789 1.01909 2.84049C1.15777 2.74539 1.35662 2.61814 1.59467 2.49118C2.08217 2.23117 2.68326 2 3.25 2V1C2.44174 1 1.66783 1.31883 1.12408 1.60882C0.846506 1.75686 0.615665 1.90461 0.453564 2.01576C0.372302 2.07148 0.307748 2.1184 0.262623 2.15209C0.240046 2.16895 0.222289 2.18253 0.209691 2.19228C0.203391 2.19716 0.198376 2.20109 0.19469 2.20399C0.192847 2.20544 0.191335 2.20664 0.190161 2.20757C0.189574 2.20803 0.18907 2.20843 0.188652 2.20877C0.188443 2.20893 0.188255 2.20908 0.188088 2.20922C0.188005 2.20928 0.187896 2.20937 0.187854 2.2094C0.187751 2.20949 0.187652 2.20957 0.5 2.6ZM3.25 2C3.81674 2 4.41782 2.23117 4.90533 2.49118C5.14338 2.61814 5.34223 2.74539 5.48091 2.84049C5.55004 2.88789 5.60365 2.92691 5.63909 2.95337C5.65679 2.9666 5.66992 2.97665 5.67814 2.98301C5.68224 2.98619 5.68512 2.98844 5.68672 2.9897C5.68752 2.99033 5.688 2.99071 5.68816 2.99084C5.68824 2.9909 5.68823 2.9909 5.68815 2.99083C5.68811 2.9908 5.68805 2.99075 5.68796 2.99068C5.68792 2.99065 5.68784 2.99059 5.68782 2.99057C5.68774 2.9905 5.68765 2.99043 6 2.6C6.31235 2.20957 6.31225 2.20949 6.31215 2.2094C6.3121 2.20937 6.31199 2.20928 6.31191 2.20922C6.31174 2.20908 6.31156 2.20893 6.31135 2.20877C6.31093 2.20843 6.31043 2.20803 6.30984 2.20757C6.30866 2.20664 6.30715 2.20544 6.30531 2.20399C6.30162 2.20109 6.29661 2.19716 6.29031 2.19228C6.27771 2.18253 6.25995 2.16895 6.23738 2.15209C6.19225 2.1184 6.1277 2.07148 6.04644 2.01576C5.88434 1.90461 5.65349 1.75686 5.37592 1.60882C4.83217 1.31883 4.05826 1 3.25 1V2ZM6 10.5C6.31235 10.1096 6.31225 10.1095 6.31215 10.1094C6.3121 10.1094 6.31199 10.1093 6.31191 10.1092C6.31174 10.1091 6.31156 10.1089 6.31135 10.1088C6.31093 10.1084 6.31043 10.108 6.30984 10.1076C6.30866 10.1066 6.30715 10.1054 6.30531 10.104C6.30162 10.1011 6.29661 10.0972 6.29031 10.0923C6.27771 10.0825 6.25995 10.069 6.23738 10.0521C6.19225 10.0184 6.1277 9.97148 6.04644 9.91576C5.88434 9.80461 5.65349 9.65686 5.37592 9.50882C4.83217 9.21883 4.05826 8.9 3.25 8.9V9.9C3.81674 9.9 4.41783 10.1312 4.90533 10.3912C5.14338 10.5181 5.34223 10.6454 5.48091 10.7405C5.55004 10.7879 5.60365 10.8269 5.63909 10.8534C5.65679 10.8666 5.66992 10.8766 5.67814 10.883C5.68224 10.8862 5.68512 10.8884 5.68672 10.8897C5.68752 10.8903 5.688 10.8907 5.68816 10.8908C5.68824 10.8909 5.68823 10.8909 5.68815 10.8908C5.68811 10.8908 5.68805 10.8907 5.68796 10.8907C5.68792 10.8906 5.68784 10.8906 5.68782 10.8906C5.68774 10.8905 5.68765 10.8904 6 10.5ZM3.25 8.9C2.44174 8.9 1.66783 9.21883 1.12408 9.50882C0.846506 9.65686 0.615665 9.80461 0.453564 9.91576C0.372302 9.97148 0.307748 10.0184 0.262623 10.0521C0.240046 10.069 0.222289 10.0825 0.209691 10.0923C0.203391 10.0972 0.198376 10.1011 0.19469 10.104C0.192847 10.1054 0.191336 10.1066 0.190161 10.1076C0.189574 10.108 0.189071 10.1084 0.188652 10.1088C0.188443 10.1089 0.188255 10.1091 0.188089 10.1092C0.188005 10.1093 0.187896 10.1094 0.187855 10.1094C0.187751 10.1095 0.187653 10.1096 0.5 10.5C0.812347 10.8904 0.81226 10.8905 0.812177 10.8906C0.812156 10.8906 0.812079 10.8906 0.812037 10.8907C0.811954 10.8907 0.811892 10.8908 0.81185 10.8908C0.811766 10.8909 0.811764 10.8909 0.811843 10.8908C0.812 10.8907 0.812482 10.8903 0.813282 10.8897C0.814884 10.8884 0.817758 10.8862 0.821864 10.883C0.830079 10.8766 0.843206 10.8666 0.860912 10.8534C0.896353 10.8269 0.949964 10.7879 1.01909 10.7405C1.15777 10.6454 1.35662 10.5181 1.59467 10.3912C2.08217 10.1312 2.68326 9.9 3.25 9.9V8.9ZM11 2.6V10.5H12V2.6H11ZM6 2.6C6.31235 2.99043 6.31226 2.9905 6.31218 2.99057C6.31216 2.99059 6.31208 2.99065 6.31204 2.99068C6.31195 2.99075 6.31189 2.9908 6.31185 2.99083C6.31177 2.9909 6.31176 2.9909 6.31184 2.99084C6.312 2.99071 6.31248 2.99033 6.31328 2.9897C6.31488 2.98844 6.31776 2.98619 6.32186 2.98301C6.33008 2.97665 6.34321 2.9666 6.36091 2.95337C6.39635 2.92691 6.44996 2.88789 6.51909 2.84049C6.65777 2.74539 6.85662 2.61814 7.09467 2.49118C7.58217 2.23117 8.18326 2 8.75 2V1C7.94174 1 7.16783 1.31883 6.62408 1.60882C6.34651 1.75686 6.11566 1.90461 5.95356 2.01576C5.8723 2.07148 5.80775 2.1184 5.76262 2.15209C5.74005 2.16895 5.72229 2.18253 5.70969 2.19228C5.70339 2.19716 5.69838 2.20109 5.69469 2.20399C5.69285 2.20544 5.69134 2.20664 5.69016 2.20757C5.68957 2.20803 5.68907 2.20843 5.68865 2.20877C5.68844 2.20893 5.68826 2.20908 5.68809 2.20922C5.68801 2.20928 5.6879 2.20937 5.68785 2.2094C5.68775 2.20949 5.68765 2.20957 6 2.6ZM8.75 2C9.31674 2 9.91782 2.23117 10.4053 2.49118C10.6434 2.61814 10.8422 2.74539 10.9809 2.84049C11.05 2.88789 11.1036 2.92691 11.1391 2.95337C11.1568 2.9666 11.1699 2.97665 11.1781 2.98301C11.1822 2.98619 11.1851 2.98844 11.1867 2.9897C11.1875 2.99033 11.188 2.99071 11.1882 2.99084C11.1882 2.9909 11.1882 2.9909 11.1882 2.99083C11.1881 2.9908 11.188 2.99075 11.188 2.99068C11.1879 2.99065 11.1878 2.99059 11.1878 2.99057C11.1877 2.9905 11.1877 2.99043 11.5 2.6C11.8123 2.20957 11.8122 2.20949 11.8121 2.2094C11.8121 2.20937 11.812 2.20928 11.8119 2.20922C11.8117 2.20908 11.8116 2.20893 11.8113 2.20877C11.8109 2.20843 11.8104 2.20803 11.8098 2.20757C11.8087 2.20664 11.8072 2.20544 11.8053 2.20399C11.8016 2.20109 11.7966 2.19716 11.7903 2.19228C11.7777 2.18253 11.76 2.16895 11.7374 2.15209C11.6923 2.1184 11.6277 2.07148 11.5464 2.01576C11.3843 1.90461 11.1535 1.75686 10.8759 1.60882C10.3322 1.31883 9.55826 1 8.75 1V2ZM11.5 10.5C11.8123 10.1096 11.8122 10.1095 11.8121 10.1094C11.8121 10.1094 11.812 10.1093 11.8119 10.1092C11.8117 10.1091 11.8116 10.1089 11.8113 10.1088C11.8109 10.1084 11.8104 10.108 11.8098 10.1076C11.8087 10.1066 11.8072 10.1054 11.8053 10.104C11.8016 10.1011 11.7966 10.0972 11.7903 10.0923C11.7777 10.0825 11.76 10.069 11.7374 10.0521C11.6923 10.0184 11.6277 9.97148 11.5464 9.91576C11.3843 9.80461 11.1535 9.65686 10.8759 9.50882C10.3322 9.21883 9.55826 8.9 8.75 8.9V9.9C9.31674 9.9 9.91782 10.1312 10.4053 10.3912C10.6434 10.5181 10.8422 10.6454 10.9809 10.7405C11.05 10.7879 11.1036 10.8269 11.1391 10.8534C11.1568 10.8666 11.1699 10.8766 11.1781 10.883C11.1822 10.8862 11.1851 10.8884 11.1867 10.8897C11.1875 10.8903 11.188 10.8907 11.1882 10.8908C11.1882 10.8909 11.1882 10.8909 11.1882 10.8908C11.1881 10.8908 11.188 10.8907 11.188 10.8907C11.1879 10.8906 11.1878 10.8906 11.1878 10.8906C11.1877 10.8905 11.1877 10.8904 11.5 10.5ZM8.75 8.9C7.94174 8.9 7.16783 9.21883 6.62408 9.50882C6.34651 9.65686 6.11566 9.80461 5.95356 9.91576C5.8723 9.97148 5.80775 10.0184 5.76262 10.0521C5.74005 10.069 5.72229 10.0825 5.70969 10.0923C5.70339 10.0972 5.69838 10.1011 5.69469 10.104C5.69285 10.1054 5.69134 10.1066 5.69016 10.1076C5.68957 10.108 5.68907 10.1084 5.68865 10.1088C5.68844 10.1089 5.68826 10.1091 5.68809 10.1092C5.68801 10.1093 5.6879 10.1094 5.68785 10.1094C5.68775 10.1095 5.68765 10.1096 6 10.5C6.31235 10.8904 6.31226 10.8905 6.31218 10.8906C6.31216 10.8906 6.31208 10.8906 6.31204 10.8907C6.31195 10.8907 6.31189 10.8908 6.31185 10.8908C6.31177 10.8909 6.31176 10.8909 6.31184 10.8908C6.312 10.8907 6.31248 10.8903 6.31328 10.8897C6.31488 10.8884 6.31776 10.8862 6.32186 10.883C6.33008 10.8766 6.34321 10.8666 6.36091 10.8534C6.39635 10.8269 6.44996 10.7879 6.51909 10.7405C6.65777 10.6454 6.85662 10.5181 7.09467 10.3912C7.58217 10.1312 8.18326 9.9 8.75 9.9V8.9Z" fill="#6488FF"/>
</svg>
