<svg width="18" height="18" viewBox="0 0 18 18" fill="none" xmlns="http://www.w3.org/2000/svg">
<path d="M11.6664 8.99978C11.6664 10.4725 10.4725 11.6664 8.99978 11.6664C7.52702 11.6664 6.33311 10.4725 6.33311 8.99978C6.33311 7.52702 7.52702 6.33311 8.99978 6.33311C10.4725 6.33311 11.6664 7.52702 11.6664 8.99978Z" stroke="#6488FF" stroke-width="1.5"/>
<path d="M7.85607 2.24173C8.3738 1.37776 9.62577 1.37776 10.1435 2.24173L10.614 3.02691C10.9159 3.53077 11.512 3.77769 12.0818 3.6349L12.9697 3.41239C13.9467 3.16756 14.832 4.05283 14.5872 5.02984L14.3647 5.91775C14.2219 6.48753 14.4688 7.08363 14.9727 7.38557L15.7578 7.85607C16.6218 8.3738 16.6218 9.62577 15.7578 10.1435L14.9727 10.614C14.4688 10.9159 14.2219 11.512 14.3647 12.0818L14.5872 12.9697C14.832 13.9467 13.9467 14.832 12.9697 14.5872L12.0818 14.3647C11.512 14.2219 10.9159 14.4688 10.614 14.9727L10.1435 15.7578C9.62577 16.6218 8.3738 16.6218 7.85607 15.7578L7.38557 14.9727C7.08363 14.4688 6.48753 14.2219 5.91775 14.3647L5.02984 14.5872C4.05283 14.832 3.16756 13.9467 3.41239 12.9697L3.6349 12.0818C3.77769 11.512 3.53077 10.9159 3.02691 10.614L2.24173 10.1435C1.37776 9.62577 1.37776 8.3738 2.24173 7.85607L3.02691 7.38557C3.53077 7.08363 3.77769 6.48753 3.6349 5.91775L3.41239 5.02984C3.16756 4.05283 4.05283 3.16756 5.02984 3.41239L5.91775 3.6349C6.48753 3.77769 7.08363 3.53077 7.38557 3.02691L7.85607 2.24173Z" stroke="#6488FF" stroke-width="1.5"/>
</svg>
