<svg width="12" height="12" viewBox="0 0 12 12" fill="none" xmlns="http://www.w3.org/2000/svg">
<path d="M6.5 3.5C6.5 3.22386 6.27614 3 6 3C5.72386 3 5.5 3.22386 5.5 3.5H6.5ZM6 6.5H5.5C5.5 6.63261 5.55268 6.75979 5.64645 6.85355L6 6.5ZM6.89645 8.10355C7.09171 8.29882 7.40829 8.29882 7.60355 8.10355C7.79882 7.90829 7.79882 7.59171 7.60355 7.39645L6.89645 8.10355ZM11 6C11 8.76142 8.76142 11 6 11V12C9.31371 12 12 9.31371 12 6H11ZM6 11C3.23858 11 1 8.76142 1 6H0C0 9.31371 2.68629 12 6 12V11ZM1 6C1 3.23858 3.23858 1 6 1V0C2.68629 0 0 2.68629 0 6H1ZM6 1C8.76142 1 11 3.23858 11 6H12C12 2.68629 9.31371 0 6 0V1ZM5.5 3.5V6.5H6.5V3.5H5.5ZM5.64645 6.85355L6.89645 8.10355L7.60355 7.39645L6.35355 6.14645L5.64645 6.85355Z" fill="#6488FF"/>
</svg>
