<svg width="21" height="20" viewBox="0 0 21 20" fill="none" xmlns="http://www.w3.org/2000/svg">
<path d="M4.53239 16.9913C4.25144 17.2957 4.27042 17.7701 4.57479 18.0511C4.87915 18.3321 5.35365 18.3131 5.6346 18.0087L4.53239 16.9913ZM14.0186 7.82033L14.5697 8.32905H14.5697L14.0186 7.82033ZM16.2986 7.66087L16.7736 7.08041V7.08041L16.2986 7.66087ZM19.1919 10.9971C19.5125 11.2594 19.985 11.2122 20.2473 10.8916C20.5096 10.571 20.4623 10.0985 20.1418 9.8362L19.1919 10.9971ZM3.50016 10.8333C3.50016 11.2475 3.83595 11.5833 4.25016 11.5833C4.66438 11.5833 5.00016 11.2475 5.00016 10.8333H3.50016ZM10.1668 10.8333C10.1668 11.2475 10.5026 11.5833 10.9168 11.5833C11.331 11.5833 11.6668 11.2475 11.6668 10.8333H10.1668ZM3.00016 3.25H18.0002V1.75H3.00016V3.25ZM18.9168 4.16667V15.8333H20.4168V4.16667H18.9168ZM18.0002 16.75H3.00016V18.25H18.0002V16.75ZM2.0835 15.8333V4.16667H0.583496V15.8333H2.0835ZM3.00016 16.75C2.4939 16.75 2.0835 16.3396 2.0835 15.8333H0.583496C0.583496 17.168 1.66547 18.25 3.00016 18.25V16.75ZM18.9168 15.8333C18.9168 16.3396 18.5064 16.75 18.0002 16.75V18.25C19.3349 18.25 20.4168 17.168 20.4168 15.8333H18.9168ZM18.0002 3.25C18.5064 3.25 18.9168 3.66041 18.9168 4.16667H20.4168C20.4168 2.83198 19.3349 1.75 18.0002 1.75V3.25ZM3.00016 1.75C1.66547 1.75 0.583496 2.83198 0.583496 4.16667H2.0835C2.0835 3.66041 2.4939 3.25 3.00016 3.25V1.75ZM5.6346 18.0087L14.5697 8.32905L13.4675 7.31163L4.53239 16.9913L5.6346 18.0087ZM15.8237 8.24134L19.1919 10.9971L20.1418 9.8362L16.7736 7.08041L15.8237 8.24134ZM14.5697 8.32905C14.8987 7.97265 15.4483 7.93421 15.8237 8.24134L16.7736 7.08041C15.7839 6.27069 14.3348 6.37203 13.4675 7.31163L14.5697 8.32905ZM0.803033 8.86353L7.15151 15.2152L8.21243 14.1548L1.86396 7.80314L0.803033 8.86353ZM5.00016 10.8333C5.00016 10.8368 5.00039 10.8061 5.02482 10.7371C5.04836 10.6707 5.08857 10.5852 5.15043 10.4849C5.27472 10.2834 5.46667 10.0543 5.71662 9.83851C6.22241 9.4018 6.88835 9.08333 7.5835 9.08333V7.58333C6.43769 7.58333 5.43697 8.0982 4.73633 8.70316C4.38306 9.00817 4.08685 9.352 3.87379 9.69738C3.67104 10.0261 3.50016 10.4268 3.50016 10.8333H5.00016ZM7.5835 9.08333C8.27864 9.08333 8.94458 9.4018 9.45037 9.83851C9.70032 10.0543 9.89227 10.2834 10.0166 10.4849C10.0784 10.5852 10.1186 10.6707 10.1422 10.7371C10.1666 10.8061 10.1668 10.8368 10.1668 10.8333H11.6668C11.6668 10.4268 11.496 10.0261 11.2932 9.69738C11.0801 9.352 10.7839 9.00817 10.4307 8.70316C9.73002 8.0982 8.7293 7.58333 7.5835 7.58333V9.08333Z" fill="#6488FF"/>
</svg>
