<svg width="21" height="20" viewBox="0 0 21 20" fill="none" xmlns="http://www.w3.org/2000/svg">
<path d="M2.1665 7.71412C2.1665 6.21515 3.38165 5 4.88062 5C5.78809 5 6.63552 4.54647 7.1389 3.7914L7.1665 3.75C7.68712 2.96907 8.56359 2.5 9.50215 2.5H11.4975C12.4361 2.5 13.3125 2.96907 13.8332 3.75L13.8608 3.79141C14.3641 4.54647 15.2116 5 16.1191 5C17.618 5 18.8332 6.21515 18.8332 7.71412V14.1667C18.8332 16.0076 17.3408 17.5 15.4998 17.5H5.49984C3.65889 17.5 2.1665 16.0076 2.1665 14.1667V7.71412Z" stroke="#F2F7FF" stroke-width="1.5" stroke-linecap="round" stroke-linejoin="round"/>
<path d="M13.8332 10.8333C13.8332 12.6743 12.3408 14.1667 10.4998 14.1667C8.65889 14.1667 7.1665 12.6743 7.1665 10.8333C7.1665 8.99238 8.65889 7.5 10.4998 7.5C12.3408 7.5 13.8332 8.99238 13.8332 10.8333Z" stroke="#F2F7FF" stroke-width="1.5" stroke-linecap="round" stroke-linejoin="round"/>
</svg>
