<svg width="16" height="16" viewBox="0 0 16 16" fill="none" xmlns="http://www.w3.org/2000/svg">
<path fill-rule="evenodd" clip-rule="evenodd" d="M9.14398 1.24173C8.62625 0.377756 7.37428 0.377755 6.85656 1.24173L6.38605 2.02691C6.08412 2.53077 5.48802 2.77769 4.91824 2.6349L4.03033 2.41239C3.05332 2.16756 2.16804 3.05283 2.41288 4.02984L2.63539 4.91775C2.77818 5.48753 2.53126 6.08363 2.0274 6.38557L1.24222 6.85607C0.378245 7.3738 0.378243 8.62576 1.24222 9.14349L2.0274 9.614C2.53126 9.91593 2.77818 10.512 2.63539 11.0818L2.41288 11.9697C2.16805 12.9467 3.05332 13.832 4.03033 13.5872L4.91823 13.3647C5.48802 13.2219 6.08412 13.4688 6.38605 13.9727L6.85656 14.7578C7.37428 15.6218 8.62625 15.6218 9.14398 14.7578L9.61448 13.9727C9.91642 13.4688 10.5125 13.2219 11.0823 13.3647L11.9702 13.5872C12.9472 13.832 13.8325 12.9467 13.5877 11.9697L13.3651 11.0818C13.2224 10.512 13.4693 9.91593 13.9731 9.614L14.7583 9.14349C15.6223 8.62577 15.6223 7.3738 14.7583 6.85607L13.9731 6.38557C13.4693 6.08363 13.2224 5.48753 13.3651 4.91775L13.5877 4.02984C13.8325 3.05283 12.9472 2.16756 11.9702 2.41239L11.0823 2.6349C10.5125 2.77769 9.91642 2.53077 9.61448 2.02691L9.14398 1.24173ZM8.00027 10.6664C9.47303 10.6664 10.6669 9.47254 10.6669 7.99978C10.6669 6.52702 9.47303 5.33311 8.00027 5.33311C6.52751 5.33311 5.3336 6.52702 5.3336 7.99978C5.3336 9.47254 6.52751 10.6664 8.00027 10.6664Z" fill="#6488FF"/>
</svg>
