<svg width="21" height="21" viewBox="0 0 21 21" fill="none" xmlns="http://www.w3.org/2000/svg">
<g id="$icon-line-thumbs-up">
<path id="Vector" d="M5.50016 9.81067V19.9583M12.2783 6.89618L12.5869 4.26286C12.7514 2.85852 11.654 1.625 10.2401 1.625C9.76618 1.625 9.33815 1.90818 9.15279 2.34432L6.3481 8.94357C6.08661 9.55885 5.48276 9.95833 4.81422 9.95833H3.8335C2.45278 9.95833 1.3335 11.0776 1.3335 12.4583V17.4583C1.3335 18.839 2.45278 19.9583 3.8335 19.9583H15.2811C16.3973 19.9583 17.3782 19.2184 17.6849 18.1451L19.5896 11.4785C20.0459 9.88143 18.8468 8.29167 17.1858 8.29167H13.5198C12.7718 8.29167 12.1912 7.63911 12.2783 6.89618Z" stroke="#F7F7F7" stroke-width="1.5"/>
</g>
</svg>
