<svg width="16" height="16" viewBox="0 0 16 16" fill="none" xmlns="http://www.w3.org/2000/svg">
<g clip-path="url(#clip0_1880_579)">
<path d="M10.1308 2.25219L10.1308 2.25218C10.1962 2.18677 10.301 2.18677 10.3664 2.25218L13.7484 5.63418C13.8138 5.69958 13.8138 5.80432 13.7484 5.86972C13.7484 5.86973 13.7484 5.86973 13.7484 5.86974L5.85706 13.7604L5.85704 13.7604C5.82436 13.7931 5.78242 13.8093 5.73926 13.8093C5.6961 13.8093 5.65417 13.7931 5.62148 13.7604L5.26793 14.114L5.62148 13.7604L2.23948 10.3784C2.17408 10.313 2.17408 10.2083 2.23947 10.1429C2.23947 10.1429 2.23948 10.1428 2.23948 10.1428L10.1308 2.25219ZM2.94636 9.90709L2.59284 10.2606L2.94638 10.6142L5.38571 13.0535L5.73928 13.4071L6.09283 13.0535L13.0408 6.10483L13.3944 5.75127L13.0408 5.39774L10.6015 2.9584L10.2479 2.60483L9.89436 2.95842L2.94636 9.90709Z" fill="#6199F9" stroke="#6488FF"/>
<path d="M0.666632 15.9999C0.492632 15.9999 0.321965 15.9319 0.195298 15.8046C0.0166317 15.6259 -0.0453684 15.3619 0.033965 15.1226L1.72463 10.0499C1.79797 9.83059 1.9793 9.66526 2.20397 9.61192C2.42863 9.55926 2.6653 9.62592 2.82863 9.78926L6.21063 13.1713C6.37397 13.3346 6.4413 13.5713 6.38797 13.7959C6.33463 14.0206 6.1693 14.2019 5.94997 14.2753L0.877298 15.9659C0.807965 15.9886 0.737298 15.9999 0.666632 15.9999ZM2.64863 11.4946L1.72063 14.2793L4.5053 13.3513L2.64863 11.4946Z" fill="#6199F9"/>
<path d="M13.6299 6.41832C13.4592 6.41832 13.2886 6.35299 13.1586 6.22299L9.77655 2.84099C9.51589 2.58032 9.51589 2.15899 9.77655 1.89832L11.0899 0.584988C11.8686 -0.194345 13.1366 -0.194345 13.9152 0.584988L15.4146 2.08432C16.1932 2.86299 16.1932 4.13099 15.4146 4.90966L14.1012 6.22299C13.9712 6.35365 13.8006 6.41832 13.6299 6.41832ZM11.1912 2.37032L13.6306 4.80966L14.4726 3.96766C14.7319 3.70832 14.7319 3.28699 14.4726 3.02766L12.9732 1.52832C12.7139 1.26899 12.2926 1.26899 12.0332 1.52832L11.1912 2.37032Z" fill="#6199F9"/>
</g>
<defs>
<clipPath id="clip0_1880_579">
<rect width="16" height="16" fill="white"/>
</clipPath>
</defs>
</svg>
