<svg width="92" height="50" viewBox="0 0 92 50" fill="none" xmlns="http://www.w3.org/2000/svg">
<g clip-path="url(#clip0_1492_356)">
<path d="M41.8525 43.6698C41.9163 43.5267 41.8908 43.3109 41.7146 43.2715C41.633 43.2606 41.5499 43.2742 41.4759 43.3106C41.4019 43.347 41.3402 43.4046 41.2986 43.4762C41.2085 43.6255 41.1744 43.8023 41.2024 43.9747C41.2094 44.0252 41.2214 44.0749 41.2382 44.1229C41.2867 44.1075 41.3344 44.0895 41.3811 44.069C41.5632 43.9893 41.7682 43.8591 41.8525 43.6698Z" fill="#20BEC8"/>
<path d="M42.0535 34.0937C41.994 33.8932 41.7472 33.829 41.5694 33.8924C41.4692 33.9325 41.3805 33.9973 41.3116 34.0808C41.2426 34.1643 41.1955 34.2638 41.1746 34.3704C41.1567 34.4737 41.1628 34.5799 41.1925 34.6804C41.3789 34.6789 41.5627 34.6362 41.731 34.5554C41.8944 34.4783 42.1173 34.3044 42.0535 34.0937Z" fill="#20BEC8"/>
<path d="M39.3735 32.1449C39.3735 31.9804 39.1659 31.9308 39.0332 31.9736C38.8503 32.0327 38.7499 32.258 38.7158 32.4473C38.7702 32.4584 38.8254 32.4647 38.8809 32.4661C39.0698 32.4721 39.3778 32.3942 39.3735 32.1449Z" fill="#20BEC8"/>
<path d="M41.6036 27.57C41.6769 27.6174 41.7649 27.6362 41.851 27.623C41.9372 27.6097 42.0156 27.5653 42.0715 27.4981C42.1337 27.416 42.1713 27.3177 42.1799 27.2148C42.1885 27.1119 42.1677 27.0087 42.12 26.9173C42.0785 26.8351 42.0222 26.7614 41.9541 26.6997C41.8113 26.7876 41.6866 26.9021 41.5865 27.0372C41.4734 27.2017 41.43 27.4587 41.6036 27.57Z" fill="#20BEC8"/>
<path d="M49.4947 40.7488C49.3994 39.5015 48.9383 38.2723 48.2619 37.229C46.926 35.1688 44.5828 34.2257 42.5612 33.0171C42.0303 32.701 41.4738 32.3729 41.0408 31.9257C40.6536 31.5249 40.3601 30.8935 40.6256 30.3453C40.8689 29.8399 41.4713 29.7654 41.969 29.8314C42.4471 29.9089 42.9122 30.0531 43.3508 30.2597L44.0723 30.6092C44.3066 30.7325 44.5355 30.865 44.7589 31.0066C44.7894 31.0284 44.8264 31.0389 44.8636 31.0363C44.9009 31.0336 44.9361 31.018 44.9631 30.9921C44.9963 30.9893 45.0282 30.9781 45.0559 30.9595C45.692 30.5419 46.2928 30.072 46.852 29.5547C47.1311 29.2971 47.3991 29.0279 47.6561 28.7469C47.7862 28.6047 47.9113 28.4591 48.0381 28.31C48.1495 28.1738 48.255 28.0171 48.2355 27.832C48.2159 27.647 48.0857 27.4843 47.9658 27.3429C47.8542 27.2095 47.7349 27.0827 47.6084 26.9635C47.3493 26.7251 47.0687 26.5114 46.7703 26.3253C46.1637 25.9372 45.506 25.6349 44.8542 25.3333C44.1472 25.0078 43.4189 24.7063 42.6557 24.5513C41.8641 24.39 41.0464 24.4144 40.2656 24.6224C38.9786 24.972 37.8383 25.7309 37.0146 26.7861C36.1382 27.9163 35.6812 29.319 35.7222 30.7522C35.7604 32.2084 36.3228 33.579 37.2486 34.6926C38.1956 35.8361 39.4157 36.6859 40.6919 37.4149C41.3905 37.814 42.106 38.1858 42.819 38.5601C43.1526 38.7383 43.4946 38.9079 43.8137 39.1144C44.0553 39.2703 44.3242 39.4784 44.4288 39.7585C44.5488 40.0798 44.3718 40.3633 44.1668 40.6006C43.9617 40.8378 43.7116 41.1642 43.3729 41.1933C43.1755 41.1987 42.9786 41.1697 42.7909 41.1077C42.6176 41.0608 42.4471 41.0036 42.2804 40.9364C41.9361 40.7998 41.6086 40.6236 41.3045 40.4113C41.0186 40.21 40.7455 39.9761 40.418 39.8476C40.0385 39.7003 39.6624 39.7388 39.271 39.8108C38.4734 39.9548 37.6888 40.1645 36.9252 40.4378C36.552 40.572 36.185 40.7219 35.8243 40.8875C35.7962 40.8974 35.7707 40.9135 35.7497 40.9346C35.7286 40.9557 35.7126 40.9813 35.7027 41.0095C35.6928 41.0378 35.6894 41.0678 35.6926 41.0976C35.6958 41.1273 35.7056 41.1559 35.7213 41.1813C36.4326 42.4251 37.2596 43.6269 38.2466 44.6643C39.1596 45.6228 40.2554 46.4272 41.5274 46.8161C42.1641 47.0141 42.8313 47.0934 43.4963 47.0499C43.8196 47.0265 44.1395 46.9691 44.4509 46.8786C44.7568 46.7821 45.0544 46.6609 45.3409 46.5163C45.9114 46.2541 46.4598 45.9456 46.9805 45.5937C47.247 45.4106 47.4988 45.2067 47.7335 44.9838C47.956 44.7624 48.1603 44.5232 48.3444 44.2685C48.7502 43.7297 49.1306 43.1592 49.3305 42.5082C49.4942 41.9373 49.5499 41.3404 49.4947 40.7488V40.7488ZM42.876 36.0272C42.5087 36.0226 42.1445 35.9574 41.798 35.8344C41.4304 35.6903 41.1186 35.4308 40.9089 35.0943C40.2827 35.0361 39.6709 34.7268 39.1859 34.3508C38.7009 33.9747 38.3096 33.3777 38.2764 32.7438C37.6502 32.432 37.3047 31.7501 37.1864 31.0709C37.0597 30.335 37.1397 29.4536 37.5863 28.8308C37.7543 28.585 37.9944 28.3981 38.273 28.2963C38.2977 28.2184 38.324 28.1456 38.3504 28.0805C38.5913 27.486 38.9946 26.9725 39.5135 26.5994C40.0461 26.2139 40.7515 25.9595 41.4126 26.0349C41.6035 26.0562 41.7892 26.111 41.9614 26.1968C42.0926 26.1242 42.2278 26.0593 42.3664 26.0023C43.0181 25.7342 43.7771 25.6828 44.4339 25.9646C44.7271 26.0928 44.9885 26.2844 45.1997 26.5259C45.4109 26.7674 45.5666 27.0528 45.6557 27.3618C45.7446 27.6762 45.7446 28.0093 45.6557 28.3237C45.5451 28.6972 45.3205 29.0167 45.0942 29.3285C45.0647 29.3765 45.018 29.4111 44.9638 29.4253C44.9097 29.4395 44.8521 29.4321 44.8032 29.4048C44.7548 29.3759 44.7196 29.3288 44.7054 29.274C44.6913 29.2191 44.6992 29.1608 44.7275 29.1118C44.9093 28.8821 45.0645 28.6324 45.1903 28.3674C45.3826 27.9109 45.2975 27.4166 45.0338 27.0088C44.8961 26.8004 44.7166 26.6231 44.507 26.4884C44.2973 26.3538 44.062 26.2646 43.8162 26.2268C43.308 26.158 42.791 26.2476 42.3349 26.4838L42.3511 26.5009C42.4649 26.6303 42.5442 26.7867 42.5814 26.9554C42.6186 27.1242 42.6125 27.2997 42.5638 27.4654C42.5178 27.625 42.4244 27.7667 42.2962 27.8714C42.168 27.9761 42.0111 28.0389 41.8465 28.0513C41.6914 28.0638 41.5363 28.0263 41.4036 27.9444C41.2709 27.8626 41.1674 27.7404 41.108 27.5956C40.9676 27.2256 41.159 26.829 41.4296 26.578C41.4628 26.5471 41.4977 26.5172 41.5326 26.4923C41.2622 26.4397 40.9836 26.4476 40.7166 26.5154C40.2753 26.6254 39.8664 26.8396 39.5237 27.1404C39.181 27.4411 38.9144 27.8198 38.746 28.2449C38.8748 28.2579 38.9994 28.2979 39.1119 28.3622C39.2245 28.4265 39.3224 28.5138 39.3995 28.6184C39.5016 28.7494 39.5589 28.9101 39.5627 29.0766C39.5665 29.243 39.5167 29.4062 39.4208 29.5418C39.2378 29.7791 38.8992 29.9136 38.6108 29.7988C38.2092 29.6438 38.1232 29.2403 38.1624 28.8326C37.9224 29.0313 37.7608 29.3619 37.6791 29.6403C37.5042 30.2386 37.523 30.8773 37.7327 31.464C37.8425 31.7879 38.0465 32.0711 38.3181 32.277C38.3861 31.9968 38.5538 31.7236 38.8192 31.6011C39.1051 31.4709 39.4786 31.5283 39.6777 31.7844C39.9168 32.0919 39.779 32.5159 39.4854 32.7267C39.259 32.8745 38.9854 32.9305 38.7197 32.8834C38.7445 33.0188 38.7874 33.1502 38.8473 33.274C39.0966 33.7949 39.5722 34.1512 40.0776 34.4005C40.2918 34.5068 40.5181 34.5865 40.7515 34.6378C40.7323 34.4911 40.7436 34.342 40.7847 34.2C40.8325 34.0373 40.9174 33.8881 41.0326 33.7642C41.1478 33.6403 41.2902 33.5452 41.4483 33.4865C41.612 33.4292 41.7895 33.4262 41.955 33.4778C42.1205 33.5295 42.2653 33.633 42.3681 33.7734C42.5833 34.0724 42.4957 34.4587 42.2507 34.708C42.0241 34.9219 41.7336 35.0544 41.4245 35.0849C41.7835 35.4866 42.3672 35.574 42.8794 35.5989C43.1492 35.6117 43.1491 36.04 42.876 36.0272V36.0272ZM48.5197 41.8743C48.4868 42.0116 48.427 42.1408 48.3437 42.2544C48.2604 42.368 48.1553 42.4636 48.0347 42.5356C47.8179 42.6499 47.5766 42.7087 47.3319 42.7069C47.2592 42.9663 47.1623 43.2181 47.0426 43.459C46.9244 43.7136 46.774 43.9518 46.5951 44.1675C46.4109 44.3878 46.1777 44.5612 45.9144 44.6737C45.6087 44.7925 45.2773 44.8276 44.9538 44.7756C44.7881 44.7525 44.6243 44.7173 44.4637 44.6703C44.3893 44.7358 44.3115 44.7973 44.2306 44.8545C43.69 45.2141 43.0404 45.3692 42.397 45.2922C41.8771 45.2356 41.3301 45.0352 41.011 44.6009L40.9259 44.6103C40.6395 44.635 40.3512 44.5943 40.0825 44.4914C39.8139 44.3885 39.5717 44.2259 39.374 44.0158C39.1881 43.8115 39.0466 43.5703 38.9587 43.3078C38.8708 43.0452 38.8384 42.767 38.8635 42.4911C38.9222 41.948 39.2676 41.3038 39.8904 41.3218C40.1635 41.3304 40.1644 41.7587 39.8904 41.7501C39.8065 41.7517 39.7244 41.7746 39.6517 41.8167C39.5789 41.8587 39.5179 41.9187 39.4744 41.9908C39.2387 42.3232 39.2361 42.7763 39.3561 43.1532C39.4178 43.3521 39.5204 43.5356 39.6574 43.6918C39.7943 43.848 39.9624 43.9733 40.1508 44.0595C40.3592 44.1513 40.5853 44.1952 40.8127 44.188C40.7064 43.794 40.783 43.3314 41.0893 43.0599C41.1998 42.9541 41.3381 42.8825 41.4878 42.8533C41.6375 42.8242 41.7924 42.8388 41.9341 42.8954C42.2277 43.0273 42.3434 43.3588 42.2906 43.6663C42.2209 44.0741 41.8652 44.3422 41.4789 44.487C41.6074 44.6041 41.7574 44.6946 41.9205 44.7534C42.2611 44.8741 42.6247 44.9146 42.9833 44.8716C43.3419 44.8287 43.6859 44.7036 43.9889 44.5058C43.7464 44.4039 43.4997 44.2677 43.3653 44.0304C43.2062 43.7494 43.2649 43.4214 43.4316 43.1584C43.597 42.8963 43.8135 42.6708 44.0681 42.4954C44.193 42.4068 44.3434 42.3621 44.4961 42.3681C44.6488 42.3741 44.7953 42.4306 44.9129 42.5288C45.1759 42.7464 45.2363 43.0976 45.1878 43.4205C45.1335 43.7479 44.9983 44.0563 44.7947 44.3174C45.1537 44.3979 45.5307 44.4116 45.8625 44.2317C46.2411 44.0253 46.4844 43.6424 46.6665 43.2612C46.7576 43.0794 46.835 42.891 46.898 42.6975C46.3798 42.6547 45.7919 42.4945 45.6676 41.9334C45.5358 41.3587 46.1407 40.9132 46.6699 41.07C47.1992 41.2267 47.4059 41.7707 47.394 42.2804C47.5918 42.279 47.7829 42.2074 47.9334 42.0782C48.2142 41.8024 48.1529 41.3312 48.0466 40.9912C47.7828 40.1449 46.9924 39.2831 46.0284 39.5487C45.7629 39.6215 45.6515 39.206 45.9152 39.1358C46.2056 39.0571 46.5112 39.0551 46.8027 39.1298C47.4025 39.2788 47.8841 39.7174 48.1853 40.2494C48.461 40.7248 48.6575 41.3253 48.5197 41.8743Z" fill="#20BEC8"/>
<path d="M38.6832 29.3508C38.7047 29.3737 38.7314 29.3911 38.7611 29.4013C38.7907 29.4116 38.8223 29.4146 38.8533 29.4099C38.9353 29.4036 39.0115 29.3649 39.0653 29.3024C39.1191 29.2398 39.1463 29.1584 39.1409 29.0759C39.1245 28.9718 39.0755 28.8757 39.0009 28.8017C38.9263 28.7277 38.8302 28.6797 38.7266 28.6647C38.6905 28.6596 38.6541 28.6571 38.6177 28.657C38.5832 28.799 38.5715 28.9456 38.5828 29.0913C38.5866 29.1866 38.6219 29.278 38.6832 29.3508V29.3508Z" fill="#20BEC8"/>
<path d="M44.6274 42.8407C44.4692 42.7216 44.2931 42.8458 44.1714 42.958C44.0055 43.1105 43.8123 43.2964 43.729 43.5114C43.5758 43.9063 44.0489 44.0853 44.356 44.1881C44.3952 44.1441 44.4321 44.098 44.4666 44.0502C44.6005 43.8679 44.6985 43.6615 44.7551 43.442C44.8044 43.2407 44.8112 42.9786 44.6274 42.8407Z" fill="#20BEC8"/>
<path d="M46.1682 41.5712C46.0559 41.6731 46.0499 41.8281 46.1461 41.9643C46.2754 42.1519 46.5102 42.2162 46.7229 42.2479C46.808 42.2599 46.8931 42.2684 46.9782 42.2753C46.9871 42.1349 46.9665 41.9942 46.9178 41.8624C46.7987 41.5412 46.4371 41.3279 46.1682 41.5712Z" fill="#20BEC8"/>
<path d="M61.6228 26.0228C60.8357 26.5154 60.2555 27.4791 60.4316 28.4307C60.5924 29.3199 61.3182 29.9666 62.1026 30.3273C62.3669 30.4487 62.6445 30.5384 62.9297 30.5945C63.2437 29.6888 63.5031 28.7649 63.7065 27.8277C63.8513 27.1496 63.9531 26.4629 64.0111 25.7718C63.62 25.6296 63.202 25.5782 62.7883 25.6217C62.3747 25.6651 61.9763 25.8023 61.6228 26.0228Z" fill="#FFA818"/>
<path d="M57.5389 24.5854C57.8078 24.7747 58.1626 24.725 58.434 24.5709C58.5919 24.4785 58.7353 24.363 58.8594 24.2282C58.9136 24.1724 58.964 24.1129 59.01 24.05L58.4995 24.0783L57.3466 24.1417C57.3441 24.1733 57.3441 24.2051 57.3466 24.2368C57.3502 24.3058 57.3693 24.3731 57.4026 24.4335C57.436 24.494 57.4826 24.5459 57.5389 24.5854V24.5854Z" fill="#FFA818"/>
<path d="M57.1311 39.2676C56.8369 39.5957 56.6548 40.01 56.6112 40.4497C56.5964 40.6657 56.6255 40.8825 56.6967 41.0868C56.7679 41.2911 56.8798 41.4786 57.0255 41.6379C57.6543 42.3368 58.6745 42.5801 59.5781 42.5561C60.5616 42.5287 61.535 42.1493 62.2157 41.4194C62.4292 41.1889 62.6096 40.9294 62.7517 40.6485C61.8702 40.6553 60.9879 40.669 60.1073 40.6391C59.8401 40.6296 59.5738 40.6159 59.3075 40.5928C59.1603 40.5817 59.0412 40.5697 58.9221 40.5534C59.1773 39.7944 59.4556 39.0466 59.7542 38.3057C58.7928 38.3065 57.7871 38.513 57.1311 39.2676Z" fill="#FFA818"/>
<path d="M50.4264 26.8631C51.4398 27.0662 52.8326 27.0987 53.3865 26.0271C53.623 25.5705 53.6366 25.0266 53.6094 24.5238C53.6094 24.4646 53.6026 24.4055 53.5983 24.3464L52.944 24.3816C51.9798 24.4341 51.0155 24.4832 50.0512 24.5289C50.0036 24.5313 49.9574 24.5458 49.9167 24.5709C49.8751 24.5923 49.8404 24.6251 49.8166 24.6656C49.7928 24.7061 49.7809 24.7526 49.7823 24.7996C49.7783 25.4278 49.7854 26.0539 49.8036 26.6781C50.0044 26.761 50.2131 26.823 50.4264 26.8631V26.8631Z" fill="#FFA818"/>
<path d="M54.2866 35.736C54.5173 35.7245 54.7458 35.6854 54.9673 35.6195C55.471 35.497 56.0181 35.3625 56.4307 35.0302C56.617 34.876 56.763 34.6784 56.8562 34.4544C56.9493 34.2305 56.9867 33.987 56.9651 33.7453C56.9234 33.1294 56.5397 32.6531 56.0291 32.3987C55.5314 33.3966 54.986 34.3689 54.4772 35.3634C54.4125 35.4879 54.349 35.6121 54.2866 35.736Z" fill="#FFA818"/>
<path d="M65.3249 43.7254C64.8995 43.859 64.4834 44.0971 64.2333 44.4766C64.0791 44.7049 63.9907 44.9718 63.978 45.2476L66.2072 44.958C66.2648 44.9554 66.3202 44.935 66.3658 44.8996C66.4115 44.8642 66.4453 44.8155 66.4625 44.7602C66.5268 44.5161 66.5731 44.2676 66.6012 44.0166L66.6395 43.566C66.1952 43.533 65.7487 43.5871 65.3249 43.7254Z" fill="#FFA818"/>
<path d="M63.9406 44.1554C64.292 43.6911 64.8246 43.4093 65.3777 43.2645C65.795 43.152 66.2281 43.1103 66.6591 43.1412C66.6591 43.0555 66.6591 42.9699 66.6591 42.8842C66.6681 42.2524 66.6157 41.6212 66.5025 40.9997C66.4905 40.9542 66.4667 40.9128 66.4335 40.8796C66.4003 40.8465 66.3589 40.8229 66.3136 40.8112C65.3598 40.6339 64.3712 40.6399 63.4037 40.6399H63.2234C62.9971 41.157 62.6594 41.617 62.2347 41.9865C61.3762 42.7266 60.2139 43.0547 59.0951 42.9647C58.0902 42.8833 56.968 42.4739 56.4404 41.5505C55.8993 40.6082 56.2703 39.4398 57.036 38.7434C57.8154 38.0324 58.9002 37.8474 59.9289 37.8731C60.4071 36.7132 60.9201 35.5671 61.4145 34.4158C61.8961 33.2903 62.37 32.1535 62.7826 30.9971C62.369 30.9066 61.971 30.7547 61.6017 30.5466C60.7134 30.0489 59.98 29.176 59.974 28.1069C59.968 26.9745 60.727 25.9389 61.7276 25.4712C62.4517 25.1338 63.2747 25.0804 64.0359 25.3213C64.0572 24.9024 64.0606 24.4827 64.041 24.0629C64.0399 23.9915 64.0112 23.9233 63.9611 23.8727C63.9109 23.8222 63.8431 23.7933 63.7722 23.7922C62.3541 23.8608 60.9335 23.9347 59.5103 24.0141C59.408 24.2341 59.2634 24.4315 59.0849 24.5949C58.9011 24.7775 58.6841 24.9229 58.4459 25.0232C57.9839 25.2133 57.3925 25.1354 57.0794 24.7148C56.961 24.5526 56.9026 24.3538 56.9144 24.1529L54.0215 24.3122C54.0266 24.373 54.0317 24.4347 54.0351 24.4955C54.0691 25.1028 54.0283 25.7479 53.7246 26.2884C53.414 26.8426 52.8439 27.1904 52.2356 27.3163C51.5549 27.4611 50.8181 27.3857 50.1493 27.2238C50.0362 27.1968 49.9246 27.164 49.8149 27.1253C49.8666 28.5427 49.9749 29.9566 50.14 31.3672C50.1415 31.4082 50.1522 31.4483 50.1711 31.4847C50.19 31.521 50.2168 31.5526 50.2494 31.5773C50.282 31.6019 50.3196 31.6189 50.3596 31.627C50.3995 31.6351 50.4408 31.6341 50.4803 31.6242C51.3779 31.4271 52.262 31.1659 53.1443 30.908C54.1381 30.6194 55.1285 30.3204 56.1265 30.0454C56.443 29.9575 56.7601 29.8741 57.0777 29.7953C56.8597 30.5524 56.572 31.2874 56.2184 31.9908C56.3971 32.0779 56.5637 32.1885 56.7136 32.3197C56.9455 32.5271 57.1269 32.7853 57.2439 33.0745C57.3609 33.3637 57.4103 33.6761 57.3883 33.9875C57.3665 34.3047 57.2671 34.6115 57.0989 34.8805C56.9307 35.1496 56.6989 35.3725 56.4243 35.5294C56.1463 35.6864 55.8499 35.8078 55.542 35.8909C55.202 35.9973 54.854 36.0755 54.5014 36.1248C54.365 36.1424 54.2269 36.1424 54.0904 36.1248C53.9883 36.3415 53.8888 36.559 53.7943 36.7792C53.5646 37.3223 53.374 37.8808 53.1741 38.4341C52.7231 39.6762 52.2815 40.932 52.0348 42.2349C51.9391 42.7336 51.8788 43.2386 51.8544 43.7459C52.0351 43.6977 52.2201 43.667 52.4066 43.6543C53.1196 43.6212 53.8285 43.7796 54.4605 44.1134C55.0476 44.4141 55.5496 44.8844 55.8049 45.5011C55.9068 45.7458 55.9644 46.0069 55.975 46.2721L57.8409 46.0296L63.1817 45.3358L63.5645 45.2861C63.5613 44.8776 63.6937 44.4796 63.9406 44.1554V44.1554Z" fill="#FFA818"/>
<path d="M55.2592 45.383C54.9742 44.923 54.5045 44.5984 54.0144 44.3928C53.3644 44.1204 52.5391 43.9936 51.8448 44.2061C51.8411 45.0021 51.9735 45.7929 52.2362 46.5437C52.2728 46.6448 52.3749 46.7579 52.4914 46.7416L55.546 46.3459C55.5387 46.0047 55.4396 45.6719 55.2592 45.383V45.383Z" fill="#FFA818"/>
<path d="M91.0763 39.3072L91.0056 38.4283C90.9386 38.4154 90.8693 38.4226 90.8064 38.4491C90.7434 38.4756 90.6896 38.5202 90.6517 38.5773C90.439 38.8532 90.559 39.3551 90.4517 39.6832C90.3653 39.9409 90.2066 40.1679 89.9948 40.3368C89.0172 41.1257 87.581 40.3102 87.7231 39.0622C87.7656 38.6827 88.3621 38.6801 88.3187 39.0622C88.2259 39.8725 89.1602 40.4327 89.7353 39.7586C90.1744 39.2446 89.7685 38.4043 90.4015 37.9649C90.5628 37.8486 90.7563 37.7863 90.9546 37.7867L90.6262 33.6699L90.4339 31.2808C89.2427 32.0791 87.5266 31.4153 87.2254 29.9222C87.1496 29.5445 87.724 29.3843 87.7997 29.7629C87.9911 30.712 88.9619 31.3185 89.8749 30.9082C90.0668 30.8225 90.2374 30.695 90.3743 30.5347L90.3088 29.7218L89.8119 23.4986L89.7183 22.8664C89.5894 22.8464 89.4579 22.8528 89.3315 22.8854C89.2052 22.9179 89.0867 22.9758 88.9832 23.0557C88.7526 23.2407 88.6029 23.5088 88.3876 23.711C87.4815 24.5676 86.0725 24.1393 85.6989 22.9812C85.5798 22.6128 86.155 22.4561 86.2733 22.8218C86.537 23.6425 87.4806 23.7915 88.0541 23.1962C88.4455 22.7884 88.7296 22.3644 89.3303 22.2779C89.4287 22.2639 89.528 22.2573 89.6273 22.2582L89.4673 21.1797C89.4444 20.8919 89.127 20.6855 88.796 20.7386L83.8543 21.5292C83.5531 21.5772 83.3506 21.8205 83.4034 22.104L84.1504 26.0075C84.3655 25.9472 84.5915 25.9381 84.8107 25.981C85.3382 26.0812 85.5254 26.5455 85.9746 26.7519C86.5702 27.0235 87.0722 26.3348 87.37 25.9167C87.5912 25.6049 88.1077 25.9048 87.8805 26.2191C87.404 26.8898 86.6187 27.7542 85.7049 27.2942C85.2327 27.056 85.0047 26.477 84.3997 26.5763C84.3529 26.5846 84.3065 26.5958 84.261 26.6097L84.2874 26.7451L85.6173 34.8408C85.9984 34.8871 86.2682 35.1261 86.6485 35.2914C87.4228 35.6298 87.7188 34.5736 87.8499 34.0245C87.9401 33.6493 88.5135 33.8095 88.4242 34.1847C88.2311 34.995 87.7903 36.0778 86.7668 35.951C86.3779 35.9022 86.0861 35.5784 85.7347 35.4662L87.1862 42.5965C87.2322 42.8441 87.4925 43.0205 87.7818 43.0034L90.6194 42.8321C90.9316 42.8132 91.1673 42.5837 91.146 42.3181L91.0763 39.3072Z" fill="#F72050"/>
<path d="M9.42015 29.0912C6.50857 27.945 3.14519 27.9039 0.339116 29.3704C0.261673 29.4059 0.199524 29.4683 0.164054 29.5462C0.128583 29.6241 0.122165 29.7122 0.145974 29.7944C0.146085 29.81 0.14751 29.8254 0.150229 29.8407C1.25576 36.2167 2.35958 42.5947 3.4617 48.9746C3.47218 49.0619 3.51556 49.1417 3.58286 49.1977C3.65016 49.2537 3.73624 49.2814 3.82331 49.2753C3.83608 49.2753 3.84799 49.2805 3.8616 49.2813C6.81828 49.504 9.94683 49.7439 12.7444 48.5523C13.9798 48.0264 15.114 47.2435 15.9427 46.1727C16.808 45.054 17.2505 43.6971 17.4053 42.3C18.0205 36.7389 14.5524 31.1136 9.42015 29.0912ZM7.50916 47.8302C6.66768 47.7874 5.57945 47.5201 5.57435 46.4597C5.57435 45.9397 5.87725 45.472 6.20057 45.0891C6.52389 44.7062 7.23689 44.1785 7.03864 43.6089C6.84891 43.0641 5.91298 42.9056 5.48501 42.6075C4.81284 42.139 4.65629 41.3406 5.09447 40.6373C5.35993 40.209 5.75898 39.9169 6.09251 39.5512C6.40647 39.2085 6.6396 38.7674 6.26948 38.3716C5.92915 38.0058 5.39567 37.9168 4.94557 37.7549C4.53547 37.6075 4.14493 37.4199 3.8616 37.0756C3.27452 36.3612 3.46596 35.5337 4.20704 35.0489C4.5627 34.8167 4.84007 34.6103 4.88346 34.1537C4.91494 33.8222 4.80348 33.4581 4.54313 33.244C3.97391 32.7806 3.11286 32.808 2.79294 32.037C2.38539 31.0562 3.29494 30.3238 4.06921 29.9461C4.51079 29.7302 4.89878 30.3949 4.45549 30.6116C4.08027 30.795 3.26431 31.1821 3.49659 31.7424C3.63443 32.0739 4.16535 32.1955 4.45719 32.324C5.17785 32.6401 5.66198 33.232 5.65773 34.0526C5.65773 34.7696 5.27825 35.2801 4.69883 35.6519C4.48442 35.7898 4.24448 35.914 4.27341 36.2113C4.30419 36.3835 4.39063 36.5407 4.5193 36.6584C4.83922 36.9788 5.33951 37.0644 5.75047 37.2092C6.43114 37.4473 7.17138 37.9039 7.23859 38.7031C7.31262 39.5717 6.59281 40.1037 6.05848 40.6596C5.7777 40.9517 5.41694 41.4177 5.7309 41.81C5.90788 42.031 6.22694 42.1527 6.47454 42.2649C6.98504 42.5013 7.53724 42.7608 7.7508 43.3236C8.06476 44.1494 7.45811 44.8655 6.93484 45.4283C6.65151 45.7333 6.0789 46.35 6.48049 46.7732C6.72468 47.0302 7.18584 47.0353 7.51341 47.0524C7.99754 47.0833 7.9984 47.8542 7.50916 47.8302ZM15.6577 41.0828C15.154 43.9233 13.1052 46.308 10.4675 47.3899C10.0106 47.5775 9.81324 46.8314 10.2642 46.6464C11.2276 46.2502 12.1006 45.6603 12.8297 44.9127C13.5588 44.1652 14.1288 43.2757 14.5047 42.2987C14.8807 41.3217 15.0546 40.2778 15.016 39.2308C14.9774 38.1838 14.727 37.1558 14.2802 36.2096C13.0243 33.5541 10.385 32.0936 7.77207 31.0699C7.31687 30.8909 7.51682 30.1457 7.97542 30.3264C9.6184 30.9723 11.2239 31.7398 12.598 32.8705C13.7868 33.8421 14.6967 35.1153 15.2341 36.5588C15.7714 38.0023 15.9168 39.5639 15.6551 41.0828H15.6577Z" fill="#FFA818"/>
<path d="M44.9693 14.0819C44.9378 13.6638 44.9038 13.2304 44.8842 12.8047C44.7481 9.92819 43.6173 7.25644 41.6145 5.07896C40.6404 4.02376 39.4151 3.236 38.0545 2.79012C36.6277 2.33098 35.2051 2.32926 33.9416 2.78583C32.764 3.23469 32.1778 3.99279 31.4486 5.32395C30.853 6.41183 30.4684 7.6856 30.2064 9.45192C29.8252 12.014 29.6108 14.7012 30.5824 16.9994C31.6315 19.4699 33.3494 21.6405 35.177 22.8055C36.0448 23.3474 37.0487 23.6277 38.0698 23.6133C38.979 23.602 39.8791 23.4306 40.7296 23.107C41.3073 22.641 41.8791 22.1468 42.336 21.5566C43.2991 20.3128 43.3425 18.89 43.3195 17.3781C43.3051 16.4358 43.3885 15.4884 43.2813 14.5513C43.2208 14.0193 43.0566 13.5036 42.9409 12.9811C42.8414 12.5177 42.7537 12.0517 42.6593 11.5866C42.4619 10.61 42.2849 9.50931 41.7634 8.64671C41.3013 7.88262 40.6156 7.289 40.0617 6.59772C39.5359 5.94327 38.9692 5.31709 38.2749 4.83825C37.5091 4.30973 36.7204 4.21465 35.8347 4.52045C35.0094 4.80485 34.0428 5.40875 33.5493 6.148C33.1018 6.81958 32.9367 7.66333 32.7512 8.43599C32.5351 9.33713 32.2288 10.2177 32.1829 11.1514C32.1301 12.2076 32.3709 13.2338 32.5606 14.266C32.901 16.0992 33.5195 17.9066 34.5125 19.4913C34.9643 20.2126 35.5335 20.7899 36.3375 21.0991C37.1462 21.4 38.0224 21.4674 38.8671 21.2936C40.7126 20.9253 41.794 19.0167 41.8927 17.2196C41.9522 16.1368 41.6757 15.1329 41.3669 14.1101C41.081 13.1619 41.0555 12.1494 40.7075 11.2182C40.3671 10.3068 39.7622 9.50503 39.2508 8.68612C38.8356 8.02396 38.3336 7.13052 37.5968 6.78703C36.8404 6.43496 35.7879 6.73734 35.2093 7.29156C34.6444 7.83294 34.3891 8.66813 34.1883 9.40566C33.9773 10.1912 33.8012 11.0409 33.8897 11.8581C34.0011 12.8766 34.4385 13.8283 34.6554 14.8254C34.7618 15.3162 34.8256 15.8156 34.9498 16.3022C35.0706 16.7733 35.2901 17.1793 35.5224 17.5999C35.8917 18.2595 36.3648 19.2549 37.2598 19.1538C37.7448 19.099 38.2034 18.8694 38.6799 18.7649C39.0202 18.6904 39.3793 18.6201 39.689 18.4497C40.556 17.97 40.1884 16.6876 40.0855 15.8901C39.9511 14.8622 39.8302 13.8249 39.5997 12.8064C39.4048 11.9498 39.1623 11.0572 38.6501 10.3342C38.3847 9.95988 37.6487 8.77177 37.1007 9.02276C36.734 9.19408 36.335 9.7423 36.1095 10.0652C35.8785 10.4173 35.7205 10.8127 35.645 11.2277C35.4399 12.2085 35.6194 13.2501 35.9002 14.1966C36.1342 14.9779 36.4235 16.0435 37.0063 16.6371C37.1512 16.7752 37.3302 16.8719 37.5246 16.917C37.7191 16.9622 37.922 16.9543 38.1124 16.8941C38.6229 16.7228 38.5004 16.2396 38.474 15.8113C38.4434 15.3102 38.5208 14.8425 38.4085 14.3474C38.3064 13.8951 38.3047 13.4291 38.2119 12.9768C38.1315 12.6174 37.9505 12.2886 37.6904 12.0294C37.6393 11.9746 37.419 11.7056 37.3177 11.7313C37.2657 11.8264 37.2244 11.9269 37.1943 12.0311C36.9501 12.8698 37.4241 13.5953 37.4053 14.4296C37.3968 14.816 36.8012 14.816 36.8098 14.4296C36.8225 13.8686 36.5485 13.3632 36.5171 12.8072C36.493 12.4316 36.5478 12.0551 36.6779 11.7022C36.7834 11.4332 36.9646 11.1608 37.2777 11.136C37.6061 11.1094 37.9031 11.3853 38.1115 11.608C38.3816 11.8793 38.5906 12.2059 38.7241 12.5657C38.8943 13.0873 38.8628 13.6587 38.9794 14.1932C39.113 14.7817 39.033 15.3428 39.0764 15.939C39.1045 16.3313 39.1368 16.7493 38.8807 17.0783C38.3881 17.7079 37.3245 17.6642 36.7374 17.2033C35.9844 16.6123 35.6415 15.3847 35.3642 14.5059C35.0306 13.4514 34.8435 12.3044 35.0366 11.2045C35.2119 10.2092 35.7768 9.33028 36.5477 8.68612C37.2786 8.07536 37.8937 8.51479 38.4272 9.12041C39.0228 9.79627 39.4797 10.4721 39.7886 11.3245C40.1978 12.4689 40.3841 13.6758 40.545 14.8768C40.63 15.5287 40.7338 16.1831 40.8002 16.8384C40.847 17.3215 40.8589 17.8543 40.6453 18.3032C40.248 19.1384 39.2508 19.2095 38.4723 19.4331C37.9524 19.583 37.4436 19.8254 36.8889 19.7517C36.4796 19.6977 36.1333 19.4673 35.8543 19.1684C35.5216 18.812 35.274 18.3811 35.0366 17.9571C34.7907 17.5194 34.5516 17.092 34.4121 16.6054C34.2317 15.9792 34.1696 15.3256 34.0113 14.6943C33.8769 14.1598 33.694 13.639 33.5459 13.1088C33.2661 12.1305 33.2227 11.099 33.4192 10.1004C33.7595 8.2698 34.5065 6.22938 36.6336 6.06662C37.6138 5.99124 38.3106 6.43667 38.9173 7.18021C39.5733 7.98541 40.1229 8.91568 40.6564 9.80569C40.9865 10.3262 41.2452 10.8892 41.4256 11.4795C41.5728 12.0072 41.6442 12.552 41.7463 13.0891C41.9727 14.278 42.4432 15.3796 42.4993 16.6063C42.5844 18.5816 41.5804 21.094 39.5571 21.7407C37.7584 22.3155 35.599 21.9121 34.4036 20.3702C33.7799 19.5658 33.3494 18.6219 32.9571 17.6873C32.5096 16.6161 32.1825 15.4978 31.9821 14.3534C31.7617 13.1439 31.4928 11.9549 31.6324 10.7171C31.7481 9.6892 32.0765 8.67498 32.3352 7.67703C32.5598 6.80501 32.8457 5.91586 33.5264 5.29225C34.3091 4.57099 35.2808 3.9491 36.3443 3.78035C38.4332 3.4497 39.7171 5.34022 40.9482 6.70222C41.6689 7.49972 42.3581 8.2501 42.7069 9.28916C43.1102 10.4884 43.2898 11.7476 43.5629 12.9811C43.6846 13.5285 43.8394 14.0613 43.8956 14.6215C43.9417 15.1913 43.9547 15.7634 43.9347 16.3347C43.9185 17.3472 44.0121 18.3726 43.8717 19.3791C43.7118 20.5252 43.2055 21.4521 42.5104 22.259C43.6692 21.5197 44.4792 20.0781 44.914 17.9614C45.1693 16.6851 45.068 15.3616 44.9693 14.0819Z" fill="#FFA818"/>
<path d="M80.9173 26.3038C80.9479 26.2336 80.9786 26.165 81.0092 26.0965C81.3655 25.2915 81.635 24.4504 81.8132 23.5875C81.8579 23.3553 81.8767 23.1189 81.8694 22.8825C81.8687 22.8288 81.8568 22.7759 81.8344 22.7271C81.8121 22.6784 81.7798 22.6349 81.7397 22.5995C81.6996 22.5641 81.6525 22.5376 81.6016 22.5218C81.5506 22.5059 81.4969 22.501 81.444 22.5073L77.8032 22.9356C78.5472 24.3014 79.6175 25.459 80.9173 26.3038V26.3038ZM80.0665 23.4059C80.1394 23.3604 80.2235 23.3363 80.3094 23.3363C80.3952 23.3363 80.4793 23.3604 80.5523 23.4059C80.6064 23.4402 80.6485 23.4907 80.6728 23.5503C80.697 23.6099 80.7022 23.6756 80.6876 23.7383C80.6906 23.7698 80.6888 23.8015 80.6825 23.8325C80.6606 23.9185 80.6157 23.9968 80.5527 24.0589C80.4897 24.121 80.411 24.1644 80.3251 24.1846C80.2282 24.2088 80.1261 24.2007 80.0341 24.1614C79.9696 24.1346 79.9145 24.0889 79.876 24.0303C79.8375 23.9717 79.8173 23.9028 79.818 23.8325C79.819 23.7455 79.8427 23.6603 79.8868 23.5854C79.9308 23.5105 79.9937 23.4486 80.069 23.4059H80.0665Z" fill="#20BEC8"/>
<path d="M77.1763 23.012L74.1362 23.3717C75.4214 25.7054 77.301 27.6522 79.5816 29.0116C79.95 28.3075 80.3278 27.564 80.663 26.8538C79.1868 25.9026 77.9844 24.5778 77.1763 23.012Z" fill="#20BEC8"/>
<path d="M68.9926 29.1641C70.0903 27.5655 70.7372 25.6972 70.8645 23.7581L69.0326 23.9748C68.8233 23.9996 68.437 24.254 68.437 24.8596C68.437 25.4653 68.8386 28.3023 68.8386 28.3023L68.9926 29.1641Z" fill="#20BEC8"/>
<path d="M75.2041 41.1299C75.2623 42.1387 75.3899 43.1422 75.5861 44.1331L79.3775 43.7794C77.8917 43.0572 76.4917 42.1684 75.2041 41.1299V41.1299Z" fill="#20BEC8"/>
<path d="M83.6679 41.5376L83.6526 41.5119L82.7124 40.0394L81.4472 37.8628C81.0592 37.1958 80.6403 36.5479 80.1905 35.9191L79.1882 34.522L77.9392 32.5664C77.905 32.5131 77.8844 32.4521 77.8794 32.3889C77.8743 32.3257 77.8849 32.2622 77.9102 32.2041C78.094 31.786 78.6598 30.7598 79.3022 29.5486C76.8463 28.0942 74.8377 25.9843 73.4986 23.4521L71.4711 23.692C71.343 25.977 70.5292 28.1692 69.1372 29.9786L69.7524 33.4187L70.0331 36.4537L70.5709 40.4797L71.0091 44.1871C71.0206 44.2865 71.0704 44.3775 71.1476 44.4405C71.2249 44.5036 71.3235 44.5338 71.4226 44.5246L74.9884 44.1914C74.7558 42.994 74.6201 41.7797 74.5826 40.5602C74.5086 40.3204 74.8455 40.054 75.0931 40.2647C76.7364 41.6761 78.5856 42.8246 80.5759 43.6697L84.0337 43.3476C84.0964 43.3416 84.1566 43.32 84.209 43.2849C84.2614 43.2498 84.3044 43.2022 84.3341 43.1464C84.3638 43.0905 84.3794 43.0281 84.3794 42.9647C84.3794 42.9014 84.3638 42.839 84.3341 42.7831L83.6679 41.5376Z" fill="#20BEC8"/>
<path d="M72.7885 6.60875C72.6014 6.48022 72.4561 6.29908 72.3707 6.08794C72.2967 5.92861 72.2593 5.62109 71.9776 5.78984C71.8653 5.85751 71.8202 6.10507 71.7828 6.21814C71.6339 6.66015 71.3752 7.19724 70.8213 7.1604C70.3381 7.13042 70.2104 6.68156 70.0854 6.29609C70.0437 6.16846 69.979 6.01084 69.8003 6.07338C69.6021 6.14362 69.5451 6.51024 69.4779 6.68156C69.386 6.92398 69.2788 7.14413 69.072 7.3086C68.6747 7.62297 68.165 7.54245 67.9166 7.08931C67.7651 6.81348 67.7311 6.48968 67.378 6.38604C67.3429 6.37631 67.307 6.36972 67.2708 6.36633C67.1814 6.75437 67.0904 7.13728 67.0028 7.5296C66.9324 7.84483 66.8627 8.15892 66.7935 8.47186C67.5022 8.45559 67.7898 9.0218 68.2909 9.43811C68.7921 9.85442 69.0014 9.12716 69.1639 8.75882C69.3264 8.39048 69.5561 8.00844 69.9901 7.93991C70.424 7.87138 70.7737 8.16691 71.0485 8.48043C71.3233 8.79394 71.6696 9.28649 71.9844 8.73227C72.1869 8.38021 72.2907 7.92706 72.6651 7.70435C73.0633 7.46964 73.4879 7.64438 73.7627 7.97246C74.1141 8.39049 74.4187 9.24366 75.0168 8.52155C75.1781 8.30766 75.3178 8.07809 75.4337 7.83626C75.2 7.2652 74.9621 6.69727 74.7199 6.13248C74.2034 6.68841 73.5219 7.07303 72.7885 6.60875Z" fill="#FFA818"/>
<path d="M68.1902 6.2765C68.2753 6.39643 68.3034 6.53348 68.3723 6.65426C68.5425 6.9515 68.7127 6.89754 68.8607 6.61829C69.0087 6.33903 69.0402 6.01866 69.2555 5.77025C69.5609 5.42161 70.0987 5.29226 70.4331 5.67259C70.5726 5.83107 70.6271 6.03751 70.6883 6.23453C70.7377 6.40585 70.7436 6.63627 71.0099 6.48466C71.1384 6.41184 71.1656 6.18998 71.2107 6.05635C71.369 5.59293 71.6498 5.01558 72.2428 5.11409C72.8358 5.2126 72.7295 5.92101 73.1787 6.14201C73.6943 6.39899 74.1461 5.97755 74.4712 5.55353L74.415 5.42504C74.238 5.01958 74.0585 4.61555 73.8764 4.21295C73.7277 4.28859 73.564 4.32986 73.3974 4.33372C72.8392 4.34657 72.5023 4.00393 72.3866 3.48569C72.3364 3.26126 72.2564 3.16361 72.0777 3.38118C72.008 3.46684 71.9926 3.6296 71.9484 3.73496C71.8633 3.96367 71.7382 4.20609 71.523 4.34401C71.169 4.57615 70.7513 4.4211 70.5454 4.07332C70.4365 3.89172 70.3999 3.67671 70.2986 3.49254C70.1072 3.14219 69.9013 3.49254 69.7975 3.72896C69.6077 4.15127 69.3882 4.68664 68.8369 4.67123C68.2855 4.65581 68.2047 4.13328 67.8669 3.84375C67.7109 4.48848 67.5572 5.13408 67.4058 5.78053C67.5644 5.80119 67.7166 5.85623 67.8521 5.94185C67.9875 6.02748 68.1029 6.14165 68.1902 6.2765V6.2765Z" fill="#FFA818"/>
<path d="M79.0351 17.9598C78.2863 15.4945 77.4551 13.0569 76.5413 10.647C76.4064 10.8694 76.2295 11.0629 76.0205 11.2166C75.5543 11.5498 74.9468 11.6321 74.4524 11.3134C74.2338 11.1721 74.0525 10.9305 73.8126 10.8277C73.5403 10.7112 73.4416 10.9134 73.3361 11.1267C73.1592 11.4916 73.0188 11.9079 72.6036 12.0604C72.0412 12.2668 71.5664 11.8248 71.198 11.4607C70.7666 11.0324 70.4518 11.0496 70.0553 11.4736C69.5099 12.0569 68.939 12.8776 68.0354 12.4159C67.587 12.188 67.2696 11.6449 66.7361 11.6081C66.5136 11.5973 66.2933 11.6572 66.1065 11.7794C65.9182 12.7422 65.7435 13.7082 65.5824 14.6773C65.3555 16.0381 65.1621 17.4044 65.0021 18.7761C64.9868 18.9089 65.1272 19.022 65.2463 19.022C65.4922 19.022 65.7364 19.0048 65.9814 19.022C67.0153 19.0383 68.0481 18.949 69.064 18.7556C69.3193 18.7085 69.5831 18.6699 69.8298 18.598C69.9923 18.5517 70.0264 18.4198 70.0723 18.2733C70.1106 18.1534 70.1429 18.0326 70.1736 17.911C70.2927 17.445 70.3718 16.9687 70.4986 16.5044C70.7028 15.7566 71.1146 14.9343 71.9042 14.6739C72.0661 14.6179 72.2385 14.5995 72.4085 14.6199C72.5785 14.6404 72.7418 14.6992 72.886 14.7921C73.1838 14.9814 73.388 15.2906 73.5352 15.6058C73.7335 16.0341 73.8049 16.5053 73.8756 16.9653C73.9607 17.5032 74.0525 18.0326 74.2755 18.5329C74.297 18.57 74.3278 18.6009 74.3648 18.6224C74.4018 18.6439 74.4437 18.6552 74.4865 18.6554C75.9544 18.6855 77.4212 18.5516 78.8598 18.2562C78.9214 18.2392 78.9742 18.1989 79.0069 18.1436C79.0396 18.0883 79.0497 18.0224 79.0351 17.9598V17.9598Z" fill="#FFA818"/>
<path d="M67.281 11.1368C67.7064 11.3321 68.1318 12.0225 68.6338 11.9488C69.0218 11.8914 69.306 11.4186 69.5442 11.1479C69.7944 10.8635 70.0887 10.586 70.4801 10.5269C70.9906 10.4481 71.3693 10.7839 71.7088 11.1265C71.941 11.3578 72.3265 11.6996 72.5834 11.3321C72.7076 11.1548 72.7663 10.9329 72.8676 10.7436C73.0573 10.3864 73.3977 10.1106 73.8231 10.1971C74.3464 10.3042 74.6535 10.9732 75.2091 10.9218C75.752 10.8721 76.0549 10.3898 76.2608 9.90755C76.2131 9.78506 76.1663 9.66085 76.1178 9.53836C75.9828 9.19229 75.8458 8.84708 75.7069 8.50272C75.5588 8.77769 75.4023 9.04838 75.1478 9.22827C74.6697 9.56491 74.1268 9.44841 73.7618 9.00983C73.5781 8.78712 73.2513 7.97077 72.8965 8.30314C72.6047 8.57725 72.5681 9.06894 72.2763 9.36275C72.1425 9.49983 71.9668 9.58762 71.7774 9.61201C71.5881 9.6364 71.396 9.59598 71.2323 9.49724C70.8596 9.27795 70.6835 8.83509 70.3244 8.61066C69.899 8.34597 69.7288 8.97385 69.5987 9.26853C69.4421 9.63344 69.243 10.0275 68.8329 10.1525C68.3462 10.3024 67.9582 9.98122 67.6502 9.63858C67.4367 9.40473 67.2384 9.13147 66.9066 9.0835C66.8245 9.07076 66.7407 9.07425 66.6599 9.09378C66.5175 9.75051 66.3802 10.4087 66.248 11.0682C66.5892 10.9637 66.9564 10.9881 67.281 11.1368V11.1368Z" fill="#FFA818"/>
<path d="M68.308 3.4506C68.4526 3.60307 68.553 3.90031 68.7334 4.00568C69.0627 4.20013 69.1945 3.61335 69.2966 3.39492C69.4847 2.99317 69.8735 2.57943 70.3568 2.74818C70.7729 2.89381 70.8367 3.31354 71.0068 3.66304C71.2008 4.06136 71.3574 3.6005 71.4416 3.37093C71.5139 3.12993 71.6456 2.91127 71.8245 2.73534C72.1972 2.40297 72.7162 2.55288 72.8855 3.01459C72.9816 3.27671 72.9255 3.63391 73.2573 3.72385C73.3836 3.75659 73.5176 3.73943 73.6317 3.67588C73.5866 3.57737 73.5466 3.47801 73.4973 3.3795C73.3418 3.04029 73.1841 2.70164 73.0242 2.36357C72.8761 2.05005 72.7332 1.72968 72.5613 1.4273C72.3877 1.10584 72.1488 0.824775 71.8602 0.602394C71.5883 0.407555 71.2777 0.274299 70.9498 0.211783C70.2615 0.0730138 69.557 0.162956 68.8704 0.268318C68.8295 0.279178 68.7922 0.300757 68.7623 0.330853C68.7324 0.360948 68.711 0.398486 68.7002 0.439639C68.4733 1.36991 68.2464 2.2999 68.0195 3.22959C68.127 3.28694 68.2244 3.36159 68.308 3.4506Z" fill="#FFA818"/>
<path d="M27.3005 7.05344C26.9723 6.24232 26.4398 5.53137 25.7554 4.99074C25.0201 4.40893 24.1694 3.99268 23.2607 3.77008C22.2278 3.50539 21.1498 3.45143 20.0888 3.5131C19.0342 3.57425 17.986 3.71744 16.9534 3.9414C15.9179 4.15904 14.9033 4.46716 13.921 4.86225C13.6904 4.95648 13.4615 5.05584 13.2403 5.16035C13.2294 5.16342 13.2199 5.17005 13.2131 5.1792C13.2091 5.18532 13.2064 5.19222 13.2053 5.19945C13.2041 5.20668 13.2044 5.21408 13.2063 5.22117C13.2993 6.32276 13.4088 7.42235 13.5347 8.51995C13.6606 9.61754 13.8025 10.7051 13.9601 11.7827C14.1201 12.8781 14.2971 13.9711 14.4911 15.0618C14.6851 16.1526 14.8958 17.2396 15.1232 18.3229C15.3513 19.4057 15.5997 21.5352 15.8609 22.6111C15.8924 22.743 15.9247 22.8749 15.9571 23.0068C15.9589 23.0155 15.9629 23.0236 15.9685 23.0305C15.9741 23.0373 15.9813 23.0427 15.9894 23.0462C15.9976 23.0515 16.0069 23.0547 16.0166 23.0556C16.3256 23.0934 16.6363 23.1146 16.9475 23.119C16.9694 21.3379 16.8787 19.5571 16.676 17.7875C16.4386 15.7317 15.895 13.7367 15.6286 11.6894C15.4295 10.1569 15.5036 8.48825 16.3476 7.14938C16.7348 6.54266 17.2641 6.041 17.889 5.6885C18.5139 5.336 19.2152 5.14345 19.9314 5.1278C21.3318 5.10638 22.6762 5.84135 23.4819 6.9832C24.3055 8.14904 24.5029 9.82027 23.533 10.9621C22.6404 12.0157 20.9183 12.6462 19.5953 12.1417C18.45 11.7057 17.8893 10.3908 18.2152 9.22407C18.5479 8.03511 20.0445 7.12454 21.1259 8.00256C21.5888 8.37861 21.8253 9.05104 21.5335 9.60612C21.4083 9.8542 21.2021 10.0513 20.9494 10.1641C20.6968 10.2769 20.4133 10.2986 20.1466 10.2254C19.7791 10.1167 19.9365 9.54016 20.3049 9.64723C20.456 9.68888 20.6173 9.66959 20.7546 9.59347C20.8918 9.51734 20.9942 9.39037 21.04 9.23949C21.1472 8.89685 20.9115 8.5405 20.6222 8.37603C19.9952 8.01712 19.209 8.48654 18.9112 9.06817C18.3496 10.1638 19.021 11.5095 20.2249 11.6885C21.3676 11.8598 22.8157 11.2063 23.3611 10.1603C23.9567 9.0202 23.3781 7.5991 22.5213 6.77333C20.7141 5.02929 17.7192 5.61092 16.6284 7.86379C15.4295 10.3368 16.585 13.2972 16.9942 15.8242C17.3834 18.2292 17.5656 20.6636 17.5388 23.1002C17.8466 23.0762 18.153 23.0368 18.4568 22.982C18.701 22.9383 18.9444 22.8877 19.186 22.8338C19.1974 22.832 19.2079 22.8265 19.2159 22.8181C19.2239 22.8098 19.2289 22.799 19.2303 22.7875V22.7875C19.2299 22.7861 19.2299 22.7846 19.2303 22.7832C19.2303 22.7832 19.2303 22.7772 19.2303 22.7738C19.2558 21.9095 19.1724 19.995 19.0431 19.141C18.9149 18.2944 18.7356 17.4565 18.5062 16.632C18.4049 16.2653 18.2935 15.9013 18.1659 15.5407C19.1611 15.4706 20.1455 15.2884 21.1004 14.9976C22.0508 14.7192 23.0114 14.4374 23.898 13.9876C24.7485 13.5682 25.5129 12.9911 26.151 12.2864C26.7818 11.5793 27.2288 10.7258 27.452 9.80228C27.6786 8.89165 27.6258 7.93324 27.3005 7.05344V7.05344ZM14.9812 6.36816C14.9408 6.43626 14.8754 6.48565 14.7991 6.50567C14.7229 6.5257 14.6419 6.51477 14.5736 6.47523L14.2333 6.26794C14.1995 6.24808 14.1699 6.22172 14.1462 6.19035C14.1225 6.15899 14.1052 6.12323 14.0953 6.08513C14.0853 6.04703 14.0829 6.00733 14.0882 5.96829C14.0935 5.92926 14.1063 5.89165 14.1261 5.85762C14.1458 5.82359 14.172 5.79381 14.2031 5.76997C14.2343 5.74613 14.2698 5.7287 14.3076 5.71868C14.3455 5.70866 14.3849 5.70624 14.4237 5.71156C14.4625 5.71688 14.4998 5.72984 14.5336 5.74969L14.8782 5.95785C14.9455 5.99973 14.9939 6.06639 15.0132 6.14366C15.0324 6.22093 15.0209 6.30271 14.9812 6.37158V6.36816ZM17.1457 5.22802C17.0774 5.26707 16.9967 5.27773 16.9207 5.25773C16.8448 5.23773 16.7795 5.18864 16.739 5.12094L16.5322 4.77402C16.5074 4.74024 16.4899 4.70157 16.4809 4.66054C16.4719 4.61951 16.4715 4.57703 16.4799 4.53585C16.4882 4.49467 16.505 4.45572 16.5293 4.42152C16.5535 4.38732 16.5847 4.35863 16.6206 4.33732C16.6566 4.31601 16.6967 4.30255 16.7381 4.29782C16.7796 4.29309 16.8216 4.29719 16.8614 4.30986C16.9012 4.32252 16.9379 4.34347 16.9692 4.37134C17.0004 4.39921 17.0255 4.43338 17.0427 4.47164L17.2495 4.81428C17.2905 4.88352 17.3025 4.96626 17.2831 5.04442C17.2636 5.12259 17.2142 5.18983 17.1457 5.23145V5.22802ZM23.3951 4.3697L23.1161 4.92221C23.0758 4.99046 23.0105 5.04002 22.9342 5.06022C22.858 5.08041 22.7769 5.06961 22.7085 5.03014C22.6419 4.98856 22.5936 4.92278 22.5738 4.8464C22.554 4.77002 22.5642 4.6889 22.6022 4.61983L22.8804 4.06732C22.9208 3.99925 22.9861 3.94983 23.0623 3.92965C23.1385 3.90947 23.2195 3.92015 23.2879 3.95939C23.3547 4.00083 23.4031 4.06656 23.4231 4.14295C23.443 4.21934 23.433 4.30054 23.3951 4.3697V4.3697ZM20.247 14.4117C19.9918 14.7003 19.5715 14.2746 19.8216 13.9834C19.9395 13.8482 20.0006 13.6722 19.9918 13.4925C19.9824 13.1062 20.578 13.1071 20.5874 13.4925C20.595 13.8318 20.4725 14.161 20.2453 14.4117H20.247ZM24.7871 12.3978C24.7643 12.4732 24.7137 12.537 24.6457 12.576C24.5776 12.6151 24.4973 12.6264 24.4213 12.6077L23.664 12.4689C23.5049 12.4398 23.4164 12.2453 23.4555 12.0997C23.4787 12.0243 23.5295 11.9607 23.5977 11.9219C23.6658 11.883 23.7462 11.8719 23.8223 11.8907L24.5795 12.0294C24.6549 12.0514 24.7188 12.1023 24.7573 12.1712C24.7958 12.2401 24.8059 12.3215 24.7854 12.3978H24.7871ZM26.294 8.23384L25.8124 8.71868C25.7565 8.77547 25.6806 8.80761 25.6012 8.80801C25.5218 8.80841 25.4455 8.77705 25.3891 8.72082C25.3327 8.66459 25.3008 8.5881 25.3004 8.50818C25.3 8.42826 25.3311 8.35146 25.387 8.29466L25.8685 7.80982C25.8962 7.7817 25.9291 7.75934 25.9653 7.74401C26.0015 7.72868 26.0404 7.72069 26.0797 7.72049C26.119 7.72029 26.158 7.72789 26.1944 7.74285C26.2308 7.75781 26.2639 7.77984 26.2918 7.80768C26.3198 7.83552 26.342 7.86863 26.3572 7.90511C26.3724 7.9416 26.3804 7.98074 26.3806 8.02032C26.3808 8.05989 26.3732 8.09911 26.3584 8.13575C26.3435 8.17239 26.3216 8.20572 26.294 8.23384V8.23384Z" fill="#F72050"/>
<path d="M54.2671 19.0483C53.6933 19.1455 53.1395 19.338 52.6284 19.618L52.6829 19.6419C53.6981 20.0757 54.8217 20.1831 55.8999 19.9495C56.289 19.8634 56.6693 19.741 57.0358 19.5837C56.2047 19.0815 55.2239 18.8918 54.2671 19.0483Z" fill="#20BEC8"/>
<path d="M56.1581 1.24139C56.4929 1.83473 56.9585 2.34282 57.5191 2.72655C58.0796 3.11029 58.7201 3.35945 59.3913 3.45485C59.4449 3.46256 59.4993 3.46599 59.5538 3.47113C58.9735 2.7137 58.2677 2.06283 57.4675 1.5472C56.9917 1.23655 56.485 0.97673 55.9556 0.771973C56.0087 0.934332 56.0765 1.09146 56.1581 1.24139V1.24139Z" fill="#20BEC8"/>
<path d="M49.8694 11.1239C50.3543 10.5637 50.3543 9.71139 50.0004 9.08435C49.6269 8.4222 48.8773 8.02902 48.1362 7.97077C47.8222 7.94658 47.5064 7.97202 47.2003 8.04615C47.173 8.25002 47.1501 8.4556 47.1348 8.66119C47.0598 9.80636 47.142 10.9565 47.379 12.079C47.5165 12.0758 47.6537 12.0647 47.7899 12.0456C48.5327 11.9437 49.3589 11.7133 49.8694 11.1239Z" fill="#20BEC8"/>
<path d="M49.1867 2.87396C49.3327 3.00741 49.5102 3.10108 49.7023 3.14605C49.8944 3.19103 50.0947 3.18583 50.2843 3.13094C50.4784 3.07916 50.657 2.98001 50.804 2.84226C50.9511 2.70451 51.0622 2.5324 51.1275 2.34115C51.1929 2.15842 51.2199 1.96395 51.2065 1.77015C51.1932 1.57635 51.1399 1.38748 51.05 1.21558C50.4109 1.5796 49.839 2.05195 49.3594 2.61184C49.2922 2.6915 49.2292 2.77202 49.168 2.85426L49.1867 2.87396Z" fill="#20BEC8"/>
<path d="M60.602 14.0784C60.4318 13.1532 60.1766 12.2341 59.7205 11.4066C59.2616 10.5674 58.5978 9.85985 57.7917 9.35079C57.19 8.98022 56.5564 8.66486 55.8986 8.40852C55.5701 8.44165 55.242 8.47591 54.9141 8.51132C54.641 8.53873 54.3296 8.54472 54.0956 8.7109C53.8353 8.89422 53.7689 9.1906 53.7612 9.49298C53.7527 9.81678 53.7612 10.1423 53.7851 10.4652C53.8282 11.1088 53.9206 11.748 54.0616 12.3772C54.072 12.4185 54.0933 12.4563 54.1232 12.4864C54.1532 12.5166 54.1907 12.538 54.2318 12.5485C55.3081 12.707 56.3929 12.6196 57.4548 12.4071C57.2884 12.8786 57.0128 13.3032 56.6507 13.6458C56.6184 13.6783 56.5843 13.71 56.5495 13.7409C56.5588 13.7614 56.5699 13.7811 56.5784 13.8017C56.66 14.0079 56.6966 14.2294 56.6857 14.451C56.6748 14.6727 56.6168 14.8895 56.5154 15.0866C56.1274 15.8858 55.2494 16.2404 54.4121 16.297C53.5749 16.3535 52.6705 16.1574 52.0298 15.5774C51.7345 15.3086 51.5047 14.9749 51.3583 14.6021C51.2119 14.2294 51.1529 13.8277 51.1857 13.4282C51.2471 12.8146 51.5177 12.2413 51.9515 11.8058C51.7765 11.3375 51.6804 10.843 51.6673 10.3427C51.6469 9.69429 51.7694 9.07239 51.9319 8.44793C52.0681 7.92883 52.228 7.41144 52.4935 6.94459C52.7385 6.51629 53.078 6.15052 53.5519 6.02545C54.0644 5.90124 54.5978 5.89247 55.1141 5.99976C55.6169 6.09912 56.124 6.29529 56.4652 6.6799C56.5403 6.76577 56.6035 6.86143 56.6533 6.96429C56.6653 6.99003 56.6823 7.01307 56.7034 7.03206C56.7244 7.05104 56.749 7.06557 56.7758 7.07479C56.7786 7.07517 56.7815 7.07517 56.7843 7.07479C56.7914 7.07759 56.7988 7.0796 56.8064 7.08079C56.8461 7.08913 56.8872 7.08646 56.9255 7.07308L58.8272 6.45119C59.0356 6.38351 59.2398 6.31584 59.4534 6.26616C59.6472 6.22544 59.8387 6.17396 60.0268 6.11197C60.2038 6.0503 60.4072 5.96806 60.5152 5.80274C60.6658 5.57146 60.568 5.28021 60.4701 5.04893C60.3092 4.67046 60.1165 4.30651 59.8941 3.96104C58.8015 3.94155 57.7469 3.55434 56.8983 2.86116C56.3036 2.38851 55.8379 1.77162 55.5446 1.06829C55.4837 0.912707 55.437 0.751858 55.4051 0.58774C55.1523 0.515505 54.8947 0.461967 54.6342 0.427554C53.5681 0.288784 52.462 0.513215 51.4733 0.987773C51.5023 1.0426 51.5303 1.09913 51.5584 1.15909C51.661 1.41489 51.7065 1.69023 51.6918 1.96568C51.6771 2.24113 51.6025 2.50998 51.4733 2.75323C51.3404 3.00116 51.1489 3.21238 50.9159 3.36832C50.6828 3.52426 50.4152 3.62015 50.1367 3.64753C49.914 3.67379 49.6884 3.65283 49.4743 3.586C49.2602 3.51917 49.0624 3.40794 48.8936 3.25948C48.7385 3.51891 48.6026 3.78947 48.4869 4.06897C48.2665 4.59578 48.0963 5.14144 47.8717 5.66654C47.6651 6.13082 47.4972 6.6116 47.3697 7.10392C47.3348 7.24612 47.3051 7.39002 47.2778 7.53222C47.7103 7.45128 48.1543 7.45651 48.5847 7.54764C49.4807 7.7438 50.2745 8.35028 50.5902 9.23086C50.8956 10.0815 50.6914 11.064 50.0065 11.6653C49.3215 12.2667 48.3635 12.5074 47.4829 12.5588C47.6841 13.3903 47.9525 14.2039 48.2852 14.9915C48.7021 15.9818 49.2118 16.9129 49.9452 17.7035C50.5654 18.3732 51.2924 18.9337 52.0962 19.3619C52.2676 19.256 52.4442 19.1588 52.6254 19.0707C53.7221 18.5387 54.9779 18.3425 56.1632 18.6775C56.6577 18.8171 57.1246 19.0417 57.5432 19.3413C58.4934 18.832 59.3582 18.1756 60.106 17.396C60.383 17.0878 60.6282 16.752 60.8377 16.3938C60.8124 15.6174 60.7336 14.8438 60.602 14.0784V14.0784ZM60.1136 5.53976C60.1136 5.54918 60.1136 5.55775 60.1136 5.55175C60.1136 5.54576 60.1111 5.54576 60.1162 5.53976H60.1136Z" fill="#20BEC8"/>
<path d="M61.4894 8.42152C61.2925 8.22958 61.0489 8.09311 60.7832 8.02577C60.4816 7.96403 60.1718 7.95389 59.8668 7.99579C58.8696 8.0943 57.8733 8.20052 56.877 8.30588C57.3992 8.54356 57.8981 8.83037 58.3668 9.16248C59.181 9.74905 59.838 10.5299 60.2786 11.4351C60.7159 12.3285 60.9721 13.299 61.1227 14.2798C61.1873 14.7018 61.2375 15.1259 61.2733 15.5519C61.591 14.8103 61.8226 14.0342 61.9633 13.2391C62.0607 12.7077 62.1277 12.1712 62.1641 11.6321C62.213 11.0798 62.213 10.5242 62.1641 9.97197C62.0969 9.40062 61.9156 8.82412 61.4894 8.42152Z" fill="#20BEC8"/>
<path d="M53.4749 13.8677C52.9692 13.4484 52.5429 12.9405 52.2165 12.3686C52.2004 12.3404 52.1859 12.3104 52.1706 12.283C51.9824 12.4988 51.8404 12.7514 51.7535 13.025C51.6666 13.2985 51.6366 13.5872 51.6654 13.8729C51.6942 14.1587 51.7812 14.4354 51.921 14.6857C52.0608 14.9361 52.2503 15.1548 52.4777 15.3282C53.0486 15.7668 53.8187 15.873 54.5197 15.8062C55.1706 15.7436 55.8692 15.4318 56.1295 14.7851C56.2284 14.5516 56.2405 14.2901 56.1636 14.0484C55.8457 14.2737 55.4796 14.4204 55.0949 14.4767C54.5002 14.5504 53.9191 14.2317 53.4749 13.8677Z" fill="#20BEC8"/>
<path d="M19.1982 34.893C19.3429 36.0066 19.428 37.133 19.7828 38.2166C20.3562 37.9194 21.0318 37.9434 21.6665 38.1395C22.4706 38.3879 23.1887 38.895 24.0242 39.0441C24.8597 39.1931 25.3149 38.7254 25.9046 38.238C26.4261 37.8097 26.986 37.5322 27.6752 37.6384C28.3337 37.7429 28.9463 38.2278 29.6168 38.22C30.3281 38.2106 30.7229 37.3771 31.1875 36.9488C31.7395 36.4377 32.4336 36.1089 33.1767 36.0066C33.4339 35.9714 33.6942 35.9657 33.9527 35.9894C33.7936 34.9495 33.5809 33.919 33.3673 32.8894C31.5515 34.3732 29.3907 35.3677 27.0881 35.7796C24.4275 36.2324 21.6942 35.9252 19.1982 34.893V34.893Z" fill="#F72050"/>
<path d="M32.3324 40.9749C31.5853 41.8581 30.9285 43.0856 29.5544 42.6881C28.855 42.4851 28.3632 41.9395 27.7548 41.5805C27.4383 41.3955 26.995 41.1942 26.6428 41.4032C26.4309 41.53 26.3254 41.7801 26.2403 42.0028C26.0327 42.5442 25.9119 43.1447 25.4746 43.5576C24.9998 44.0039 24.3268 44.0904 23.7082 43.9859C22.928 43.8548 22.2695 43.3537 21.496 43.2038C21.3892 43.1828 21.2807 43.1708 21.1719 43.1678C21.5244 43.9295 21.9716 44.643 22.5026 45.2913C22.5596 45.3607 22.6183 45.4284 22.6779 45.4952C22.9839 45.3894 23.3047 45.3339 23.6283 45.3307C24.2324 45.3179 24.8347 45.4558 25.4388 45.4044C26.0429 45.353 26.436 45.0027 26.8606 44.5984C27.2197 44.2557 27.6102 43.9131 28.102 43.7854C28.5938 43.6578 29.1153 43.7606 29.602 43.8994C30.1125 44.0467 30.6826 44.2806 31.1973 44.0193C31.6959 43.7623 32.0567 43.328 32.5851 43.1164C32.9214 42.9847 33.2801 42.9206 33.641 42.928C33.9273 42.0616 34.1054 41.1627 34.171 40.2519C33.5108 40.1689 32.8701 40.3402 32.3324 40.9749Z" fill="#F72050"/>
<path d="M34.0752 36.8819C33.4427 36.7744 32.7929 36.8958 32.2408 37.2246C31.1994 37.8387 30.7595 39.2581 29.3326 39.0543C28.7506 38.9686 28.2469 38.6482 27.6794 38.5137C27.0507 38.3638 26.6423 38.7245 26.1939 39.1134C25.7455 39.5023 25.2826 39.8381 24.6768 39.9126C23.9783 39.9982 23.2976 39.761 22.668 39.4843C22.0111 39.193 21.2743 38.745 20.5264 38.8547C20.3086 38.896 20.1056 38.9951 19.9385 39.1416C19.9623 39.2701 19.9878 39.3986 20.0134 39.528C20.2006 40.4841 20.4679 41.4226 20.8123 42.3333C21.4308 42.2477 22.0886 42.4601 22.6578 42.7043C23.2899 42.9767 24.3526 43.5386 24.9431 42.8756C25.3583 42.4113 25.3685 41.6763 25.7089 41.1624C26.1181 40.5439 26.8311 40.3383 27.5271 40.5448C28.3261 40.782 28.8417 41.457 29.5828 41.7885C30.3239 42.12 30.808 41.5967 31.2249 41.0347C31.6418 40.4728 32.0417 39.9143 32.6934 39.6188C33.1694 39.403 33.6942 39.3199 34.213 39.3781C34.2233 38.5438 34.1773 37.7099 34.0752 36.8819Z" fill="#F72050"/>
<path d="M31.9948 44.5136C31.475 44.9025 30.9304 45.0592 30.2872 44.9564C29.718 44.8708 29.1564 44.5581 28.5736 44.5778C27.9908 44.5975 27.6036 45.0798 27.1995 45.4507C26.7239 45.8876 26.2236 46.1762 25.5744 46.2465C24.8937 46.3201 24.2275 46.1522 23.5511 46.1874C23.5009 46.1874 23.4481 46.1951 23.3945 46.2028C24.6776 47.3164 26.3265 48.0068 28.001 47.8723C30.3144 47.6847 32.2994 45.9372 33.2847 43.8154C32.7963 43.9097 32.4228 44.1932 31.9948 44.5136Z" fill="#F72050"/>
<path d="M18.9693 33.872C23.5843 36.0486 29.336 35.2743 33.1716 31.9447C33.0099 31.1455 32.8568 30.3445 32.7385 29.5376C32.622 28.7478 32.5352 27.9452 32.2654 27.194C31.9957 26.4427 31.5099 25.7334 30.7969 25.3822C30.0703 25.025 29.205 24.9968 28.4145 25.1612C25.4408 25.7763 23.3095 26.2988 20.0763 26.2988C19.2042 26.2988 18.8766 26.7896 18.7413 26.9061C18.6345 27.0133 18.5531 27.1433 18.5031 27.2865C18.0666 28.8395 18.5363 31.1866 18.8749 33.2253C18.9061 33.4406 18.9376 33.6562 18.9693 33.872ZM27.5628 28.1456C27.8555 28.9954 29.0773 28.8215 29.1318 27.9272C29.1658 27.379 30.0167 27.3773 29.9826 27.9272C29.9341 28.7298 29.3709 29.4494 28.5549 29.5616C27.739 29.6738 27.0047 29.1333 26.7426 28.3735C26.5605 27.851 27.3833 27.6282 27.5611 28.1456H27.5628ZM21.1611 28.908C21.6333 29.9719 23.2423 29.8726 23.3503 28.6193C23.398 28.0737 24.2488 28.0703 24.2012 28.6193C24.1237 29.5128 23.5069 30.3325 22.6007 30.4979C22.1621 30.5726 21.7111 30.4997 21.3178 30.2903C20.9245 30.0809 20.6107 29.7468 20.4251 29.3397C20.2031 28.8403 20.9365 28.4052 21.1594 28.908H21.1611Z" fill="#F72050"/>
</g>
<defs>
<clipPath id="clip0_1492_356">
<rect width="91.0222" height="49.3232" fill="white" transform="translate(0.133301 0.140625)"/>
</clipPath>
</defs>
</svg>
